<svg width="229" height="229" viewBox="0 0 229 229" fill="none" xmlns="http://www.w3.org/2000/svg">
<g clip-path="url(#clip0_154_209)">
<mask id="mask0_154_209" style="mask-type:luminance" maskUnits="userSpaceOnUse" x="0" y="0" width="229" height="229">
<path d="M229 0H0V229H229V0Z" fill="white"/>
</mask>
<g mask="url(#mask0_154_209)">
<path d="M138.187 89.3941C137.994 92.9782 133.07 99.8132 129.859 99.6401C126.649 99.4671 126.368 92.3516 126.561 88.7675C126.754 85.1834 129.512 82.4215 132.722 82.5944C135.933 82.7675 138.38 85.81 138.187 89.3941Z" fill="#343434"/>
<path d="M127.891 91.3868C127.891 91.3868 136.606 84.9736 132.107 69.6355C129.182 59.6548 107.332 86.4309 127.891 91.3868Z" fill="#343434"/>
<path d="M108.005 73.3158C109.255 67.4817 115.644 57.9586 125.727 64.5745C128.899 66.6577 130.105 70.2054 130.576 73.8505C130.905 76.3906 128.682 101.069 128.682 101.069C127.266 110.93 112.258 112.479 112.397 100.388L113.455 92.1603C106.045 89.3315 106.603 79.8657 108.005 73.3158Z" fill="#FBC3A7"/>
<path d="M113.455 92.16C113.455 92.16 117.638 93.8144 125.942 89.2533C125.942 89.2533 121.069 95.6203 112.749 97.8841L113.455 92.16Z" fill="#B87A77"/>
<path d="M135.158 77.7341C135.482 79.4717 134.334 81.1449 132.597 81.4691C130.857 81.7912 129.184 80.6456 128.859 78.9079C128.535 77.1682 129.683 75.4971 131.42 75.1729C133.158 74.8486 134.833 75.9964 135.158 77.7341Z" fill="#FBC3A7"/>
<path d="M130.477 79.1325C130.526 78.7975 130.682 78.4977 130.894 78.2411C131.109 77.9804 131.399 77.7659 131.758 77.6502C132.118 77.5388 132.55 77.5937 132.856 77.7896C133.178 77.9695 133.373 78.2691 133.478 78.5788C133.155 78.4622 132.903 78.3325 132.647 78.2934C132.399 78.2483 132.183 78.2493 131.958 78.3237C131.501 78.4595 131.044 78.7937 130.477 79.1325Z" fill="#343434"/>
<path d="M112.895 84.293C113.29 84.4895 113.607 84.7113 113.935 84.8619C114.258 85.0207 114.558 85.1277 114.848 85.1391C115.139 85.1569 115.436 85.0864 115.764 84.9563C116.09 84.824 116.423 84.6267 116.806 84.4215C116.711 84.849 116.479 85.2334 116.134 85.5313C115.801 85.8342 115.31 86.0463 114.799 86.0145C114.288 85.987 113.837 85.7284 113.532 85.4101C113.206 85.0992 113.004 84.7104 112.895 84.293Z" fill="#343434"/>
<path d="M115.139 72.2629C115.214 72.6363 115.146 73.0316 115.032 73.3948C114.915 73.7642 114.732 74.1047 114.529 74.423C114.11 75.059 113.602 75.6036 113.001 76.0672L112.97 75.6118C113.57 76.0789 114.156 76.5622 114.694 77.1188C113.975 76.8268 113.306 76.4678 112.647 76.0904L112.348 75.9202L112.617 75.6328C112.852 75.3817 113.086 75.1072 113.32 74.8476C113.55 74.5771 113.786 74.3133 114.001 74.04C114.44 73.4895 114.857 72.9569 115.139 72.2629Z" fill="#343434"/>
<path d="M118.602 73.4141C118.555 73.9709 118.537 74.5504 118.593 75.0768C118.644 75.6052 118.834 76.0903 119.118 76.1753C119.369 76.3028 119.827 76.0636 120.218 75.7069C120.606 75.3521 120.982 74.9144 121.322 74.4789L121.331 74.4688C121.427 74.3452 121.601 74.3229 121.722 74.4181C121.828 74.4998 121.858 74.6386 121.806 74.754C121.547 75.3163 121.23 75.8311 120.787 76.2969C120.566 76.5256 120.314 76.7421 119.986 76.908C119.669 77.0683 119.198 77.1589 118.79 76.9807C118.385 76.8133 118.109 76.446 117.99 76.1103C117.863 75.7699 117.826 75.4366 117.824 75.1177C117.823 74.4781 117.945 73.8895 118.143 73.3071C118.186 73.1828 118.321 73.1161 118.443 73.1586C118.549 73.1917 118.613 73.2965 118.603 73.4036L118.602 73.4141Z" fill="#343434"/>
<path d="M109.783 71.9363C109.736 72.4614 109.702 73.002 109.717 73.5073C109.731 73.7592 109.754 74.0053 109.815 74.2091C109.875 74.4213 109.969 74.5234 110.021 74.5242C110.054 74.5449 110.203 74.515 110.379 74.3809C110.555 74.2574 110.725 74.0766 110.891 73.8893C111.22 73.5081 111.537 73.0693 111.837 72.638L111.846 72.63C111.935 72.5039 112.108 72.4731 112.234 72.5602C112.342 72.6356 112.378 72.7727 112.334 72.8885C112.132 73.4264 111.881 73.9279 111.533 74.4009C111.36 74.6385 111.162 74.8642 110.902 75.0718C110.767 75.1743 110.614 75.2716 110.423 75.3373C110.231 75.4051 109.977 75.4314 109.745 75.3472C109.515 75.2715 109.323 75.1007 109.212 74.928C109.099 74.7531 109.039 74.5789 109.004 74.4165C108.935 74.0878 108.93 73.7857 108.952 73.4935C108.996 72.9049 109.129 72.3591 109.325 71.8208C109.37 71.6987 109.506 71.6364 109.628 71.6831C109.732 71.7182 109.794 71.8187 109.784 71.9237L109.783 71.9363Z" fill="#343434"/>
<path d="M122.49 71.3061C122.404 71.7131 121.745 71.9203 121.019 71.765C120.291 71.6097 119.773 71.1533 119.858 70.7463C119.944 70.3351 120.605 70.1281 121.331 70.2833C122.057 70.4385 122.575 70.897 122.49 71.3061Z" fill="#343434"/>
<path d="M112.399 69.2171C112.521 69.6184 112.045 70.112 111.335 70.3143C110.624 70.5187 109.951 70.3579 109.827 69.9565C109.705 69.5531 110.181 69.0617 110.892 68.8594C111.602 68.655 112.277 68.8159 112.399 69.2171Z" fill="#343434"/>
<path d="M110.583 67.3145C110.583 67.3145 116.865 69.0293 125.727 64.5743C125.727 64.5743 121.717 81.1317 130.382 75.5706C130.382 75.5706 131.589 74.745 132.813 75.1824L133.138 75.3076C133.138 75.3076 133.285 63.9242 126.425 61.1356C119.568 58.3451 110.94 59.5581 110.583 67.3145Z" fill="#343434"/>
<path d="M172.095 106.49C169.38 109.28 165.639 111.646 162.11 113.485C160.488 109.592 158.992 105.655 157.733 101.645C160.552 100.648 163.572 99.1256 166.279 96.6828C170.393 92.9691 174.869 80.7234 175.975 77.5636C176.029 77.3983 176.085 77.2328 176.139 77.0675L176.127 77.0643C176.127 77.0643 176.874 73.8039 176.966 73.3143C177.2 72.086 177.283 69.1159 177.283 69.1159C177.283 69.1159 178.102 68.715 178.517 70.6599C178.93 72.6067 179.19 71.9761 179.19 71.9761C179.19 71.9761 182.019 66.1257 183.07 66.2113C183.463 66.2453 183.242 67.5228 182.731 68.3121C182.222 69.0981 181.745 70.2848 181.745 70.2848C181.745 70.2848 184.694 65.9665 185.689 66.2912C185.689 66.2912 186.193 66.5236 185.238 67.8173C183.912 69.6114 183.097 71.1905 183.097 71.1905C183.097 71.1905 186.201 67.6438 186.692 67.827C187.509 68.1283 184.367 71.7423 183.981 72.8957C183.981 72.8957 186.278 70.0465 186.523 70.7229C186.756 71.3703 184.104 74.4086 183.218 78.1091C183.164 78.4675 183.091 78.8794 182.998 79.3404L182.999 79.3386C182.999 79.3386 181.693 96.6242 172.095 106.49Z" fill="#FBC3A7"/>
<path d="M180.165 83.2407C182.046 84.4553 182.961 86.7113 182.443 88.8894C180.996 94.9715 177.642 106.88 172.802 110.886C168.088 114.767 155.207 115.831 148.219 116.121C145.889 116.219 141.062 116.575 140.304 114.37L137.367 111.049C134.051 108.385 136.123 101.024 140.14 99.6174C143.266 99.0456 153.323 100.156 160.07 98.9912C160.056 98.9931 160.04 98.9953 160.042 99.0125C159.934 99.1549 161.036 99.9913 161.917 101.402C162.82 102.763 163.121 104.127 163.308 104.102C163.386 104.091 163.417 103.736 163.306 103.161C163.211 102.584 162.929 101.807 162.46 101.056C161.971 100.295 161.387 99.7374 160.911 99.4039C160.504 99.1104 160.181 98.976 160.07 98.9912C160.428 98.9278 160.772 98.8663 161.095 98.7886C161.121 98.9765 162.254 99.2199 163.541 99.763C164.859 100.3 165.844 100.947 165.952 100.805C166.061 100.678 165.201 99.7558 163.781 99.1704C162.919 98.8083 162.117 98.6805 161.621 98.6687C162.809 98.3783 163.843 97.9974 164.647 97.4726C167.697 95.4949 170.579 89.9274 172.474 85.5526C173.768 82.5714 177.434 81.4791 180.165 83.2407Z" fill="#FAA73D"/>
<path d="M163.306 103.159C163.417 103.734 163.386 104.089 163.307 104.1C163.119 104.126 162.821 102.764 161.917 101.403C161.038 99.9924 159.934 99.1546 160.042 99.0122C160.04 98.995 160.056 98.9944 160.072 98.9923C160.181 98.9773 160.502 99.1087 160.909 99.4023C161.386 99.7358 161.973 100.297 162.46 101.058C162.93 101.808 163.211 102.582 163.306 103.159Z" fill="#F05841"/>
<path d="M165.952 100.803C165.844 100.945 164.862 100.298 163.544 99.7611C162.257 99.2179 161.124 98.9745 161.098 98.7866C161.286 98.7609 161.456 98.7232 161.624 98.6683C162.12 98.6801 162.919 98.8083 163.782 99.1702C165.202 99.7556 166.062 100.676 165.952 100.803Z" fill="#F05841"/>
<path d="M163.307 104.1C163.119 104.125 162.821 102.763 161.917 101.402C161.038 99.9908 159.934 99.1546 160.042 99.0122C160.04 98.9965 160.056 98.9944 160.072 98.9922C160.181 98.9772 160.502 99.1087 160.91 99.4038C161.386 99.7373 161.973 100.295 162.46 101.058C162.929 101.807 163.211 102.582 163.306 103.159C163.417 103.734 163.386 104.089 163.307 104.1Z" fill="#343434"/>
<path d="M165.952 100.803C165.844 100.945 164.862 100.298 163.544 99.761C162.258 99.2179 161.124 98.9745 161.098 98.7866L161.096 98.7725C161.103 98.7077 161.304 98.6642 161.624 98.6683C162.12 98.6801 162.919 98.8083 163.782 99.1701C165.202 99.7556 166.062 100.676 165.952 100.803Z" fill="#343434"/>
<path d="M71.8879 112.206L74.2931 104.745L79.8574 106.641L79.6045 113.093L71.8879 112.206Z" fill="#FBC3A7"/>
<path d="M102.401 98.104C104.453 98.2535 105.77 100.35 105.016 102.264L100.751 113.092L98.0266 119.117C91.2819 126.228 78.9841 137.92 71.126 137.92C66.5765 137.92 63.1899 126.594 70.8412 111.989L71.9213 112.118L79.6061 113.055L80.481 113.168L80.2265 114.043V114.059L78.7153 119.436C78.8425 119.276 78.9682 119.117 79.0796 118.957C81.227 116.173 83.2806 113.613 85.11 111.355C85.6667 110.702 86.1741 110.066 86.6832 109.462C89.976 105.453 92.3779 102.701 93.1415 101.89C96.5456 98.341 100.222 97.929 102.401 98.1199V98.104Z" fill="#FAA73D"/>
<path d="M76.6982 126.158C76.5312 126.117 77.1277 123.22 78.1903 119.739C79.2497 116.253 80.3712 113.52 80.5318 113.579C80.7005 113.637 79.851 116.455 78.7964 119.926C77.7385 123.392 76.87 126.202 76.6982 126.158Z" fill="#343434"/>
<path d="M78.7343 98.7594C79.1893 98.2806 80.5223 96.8235 80.5271 96.1713C80.5334 95.0196 78.5753 97.0876 77.7258 98.042C78.0822 98.2695 78.4289 98.5065 78.7343 98.7594Z" fill="#F8A380"/>
<path d="M70.5135 89.2946C70.7903 88.6885 71.592 88.5549 72.0469 89.0417C74.1499 91.2798 78.8647 96.9109 81.2349 100.725C84.5945 106.132 86.8199 109.676 86.8199 109.676L96.6553 118.171C96.6553 118.171 92.4972 120.449 88.8067 117.146C86.0134 114.647 84.7138 110.225 84.7138 110.225C84.7138 110.225 76.1573 94.8557 70.7632 90.397C70.4371 90.1281 70.3385 89.678 70.5135 89.2946Z" fill="#6F5A47"/>
<path d="M74.4061 108.639C73.8032 106.215 73.7587 102.286 73.7301 100.818C73.7046 99.5231 74.5461 98.96 75.0885 98.6482C77.3283 97.3565 81.8809 96.4212 82.0511 97.0591C82.1895 97.5808 78.2588 98.8534 78.2588 98.8534C78.2588 98.8534 83.1503 98.0485 82.1879 99.162C81.6741 99.7553 78.9253 99.9876 78.9253 99.9876C78.9253 99.9876 81.9095 100.303 81.682 100.74C81.2764 101.516 78.8219 101.41 78.8219 101.41C78.8219 101.41 80.0023 102.402 80.3458 104.914C80.5956 106.74 76.8495 110.375 76.8495 110.375L74.4061 108.639Z" fill="#FBC3A7"/>
<path d="M76.474 101.934C76.4454 101.825 76.9783 101.599 77.667 101.546C78.0075 101.514 78.3145 101.527 78.5022 101.511C78.6883 101.506 78.7662 101.433 78.8283 101.452C78.8521 101.465 78.8617 101.511 78.8283 101.586C78.7964 101.664 78.7042 101.745 78.5849 101.798C78.3447 101.904 78.0361 101.934 77.7036 101.968C77.0435 102.019 76.5026 102.05 76.474 101.934Z" fill="#343434"/>
<path d="M131.815 147.854L154.387 203.594L83.871 206.505L81.9496 205.437C81.6981 205.737 99.7673 142.144 99.5157 142.444C99.6729 142.247 99.3585 142.611 99.5157 142.444L97.5126 99.0417C97.7641 98.9382 97.9843 98.8715 98.2358 98.8047C100.469 98.0739 100.352 97.8369 102.113 97.8369C102.742 97.8369 103.308 97.8703 103.843 97.9037L110.846 98.6078C111.538 101.208 112.62 105.663 119.758 106.364C124.758 106.861 130.528 100.897 130.67 100.554L135.525 98.3609L144.67 98.8949L131.689 146.586C132.286 146.656 130.745 146.452 131.689 146.586L131.815 147.854Z" fill="#F05841"/>
<path d="M99.8791 118.621L131.601 117.999L134.71 172.114L156.482 212.545L89.6453 213.064L92.1462 178.942L99.8791 118.621Z" fill="#4E2F07"/>
<path d="M99.8791 118.621L131.601 117.999L134.71 172.114L156.482 212.545L89.6453 213.064L92.1462 178.942L99.8791 118.621Z" fill="#4E2F07"/>
<path d="M131.307 118.02C130.782 117.96 131.141 112.924 132.706 106.872C134.259 100.816 136.404 96.1219 136.911 96.2567C137.439 96.3964 136.154 101.254 134.621 107.236C133.073 113.213 131.853 118.085 131.307 118.02Z" fill="#343434"/>
<path d="M109.911 94.1043C110.121 94.2868 108.988 95.3606 107.929 97.4324C106.827 99.478 105.907 102.581 104.769 106.006C102.517 112.835 100.849 118.427 100.305 118.342C99.7836 118.261 100.602 112.473 102.879 105.561C104.023 102.135 105.173 98.9826 106.698 96.8919C108.184 94.7846 109.765 93.9455 109.911 94.1043Z" fill="#343434"/>
<path d="M151.999 180.343C151.914 180.052 154.671 179.213 158.753 177.195C159.748 176.684 160.814 176.079 161.638 175.215C161.843 174.999 162.03 174.77 162.19 174.52C162.35 174.279 162.513 173.982 162.563 173.794C162.619 173.586 162.563 173.569 162.558 173.558C162.569 173.555 162.429 173.477 162.19 173.469C161.955 173.46 161.666 173.511 161.414 173.606C161.159 173.71 160.8 173.886 160.5 174.066C159.872 174.433 159.249 174.896 158.599 175.395C157.275 176.41 155.913 177.461 154.511 178.532C154.306 178.689 154.101 178.843 153.914 178.986L152.596 177.548C154.844 175.1 156.501 172.355 157.609 169.709L157.811 169.212C157.878 169.044 157.951 168.876 157.973 168.792C158.007 168.691 158.01 168.593 158.013 168.61C157.999 168.618 158.105 168.823 158.231 168.851C158.386 168.904 158.439 168.848 158.374 168.87C158.315 168.893 158.231 168.938 158.111 169.027C157.856 169.218 157.598 169.395 157.365 169.599C156.412 170.382 155.635 171.27 154.985 172.131C153.689 173.867 152.84 175.462 152.206 176.533C151.581 177.613 151.191 178.199 151.068 178.145C150.947 178.089 151.104 177.405 151.528 176.216C151.959 175.033 152.627 173.317 153.863 171.352C154.486 170.373 155.271 169.341 156.308 168.391C156.558 168.144 156.844 167.923 157.127 167.69C157.27 167.572 157.48 167.429 157.741 167.317C157.993 167.208 158.416 167.082 158.901 167.281C159.358 167.443 159.684 167.976 159.717 168.338C159.773 168.711 159.723 168.977 159.667 169.226C159.6 169.493 159.53 169.655 159.471 169.835L159.272 170.373C158.187 173.247 156.457 176.23 154.043 178.871L152.728 177.43C152.915 177.284 153.12 177.13 153.325 176.973C154.732 175.911 156.109 174.873 157.438 173.867C158.111 173.368 158.812 172.86 159.574 172.44C159.97 172.224 160.323 172.041 160.8 171.868C161.287 171.705 161.775 171.635 162.305 171.666C162.813 171.716 163.474 171.862 163.948 172.465C164.411 173.048 164.388 173.858 164.203 174.327C164.027 174.826 163.8 175.145 163.564 175.482C163.329 175.813 163.059 176.104 162.782 176.368C161.66 177.419 160.421 177.991 159.333 178.454C154.954 180.214 152.055 180.573 151.999 180.343Z" fill="#343434"/>
<path d="M175.219 193.151C175.06 193.089 175.447 192.344 175.217 191.062C174.987 189.815 173.907 188.059 171.889 186.89C170.913 186.329 169.62 185.934 168.238 185.668C166.842 185.399 165.294 185.267 163.629 185.124C161.974 184.967 160.158 184.813 158.304 184.274C156.473 183.739 154.567 182.886 153.022 181.35C152.223 180.554 151.584 179.572 151.216 178.557L151.118 178.283L151.197 177.949C151.306 177.469 151.794 176.968 152.262 176.847C152.73 176.698 153.126 176.743 153.476 176.841C153.827 176.945 154.146 177.116 154.429 177.388C154.713 177.652 154.959 178.055 155.013 178.524C155.102 179.39 154.665 180.063 154.171 180.472C153.667 180.882 153.1 181.078 152.514 181.14C151.247 181.218 150.372 180.629 149.677 180.136C148.99 179.614 148.449 179.143 147.857 178.67C145.547 176.785 143.45 175.204 141.56 174.108C137.781 171.89 135.005 171.601 135.064 171.287C135.075 171.181 135.779 171.108 137.035 171.29C138.291 171.464 140.105 171.943 142.177 172.947C144.254 173.942 146.534 175.479 148.931 177.298C150.12 178.156 151.438 179.415 152.335 179.272C152.562 179.244 152.806 179.143 152.946 179.014C153.019 178.953 153.064 178.891 153.084 178.841C153.095 178.818 153.1 178.796 153.106 178.773C153.106 178.762 153.103 178.751 153.109 178.74V178.734V178.731C153.084 178.731 153.344 178.74 153.235 178.734L153.252 178.737C153.257 178.734 153.224 178.74 153.156 178.776C153.084 178.827 153.134 178.787 153.1 178.784C153.075 178.759 153.008 178.723 152.943 178.703C152.91 178.698 152.885 178.695 152.868 178.692C152.859 178.689 152.862 178.709 152.854 178.684C152.845 178.622 152.842 178.577 152.817 178.518C152.744 178.299 152.655 178.367 152.91 178.445L153.047 177.884C153.322 178.627 153.796 179.348 154.418 179.968C155.61 181.165 157.228 181.936 158.854 182.432C160.477 182.934 162.168 183.122 163.822 183.327C167.108 183.688 170.296 184.187 172.62 185.715C174.894 187.252 175.946 189.436 175.974 190.984C175.976 192.565 175.284 193.213 175.219 193.151Z" fill="#343434"/>
<path d="M121.398 131.919C121.398 131.919 129.165 127.426 121.62 119.722C114.075 112.018 126.059 108.167 126.059 108.167" stroke="white" stroke-width="4.12055" stroke-dasharray="151.22 151.22"/>
<path d="M220.618 211.855H15.8735V206.777H220.618V211.855Z" fill="#F0CD55"/>
<path d="M78.8582 201.604H162.755V206.933H78.8582V201.604Z" fill="#343434"/>
<path d="M86.7997 173.575C86.9237 173.442 87.76 175.339 88.9711 178.572L89.2451 179.293L88.4636 179.163C86.0961 178.765 83.1837 177.929 80.1558 176.62C79.2532 176.23 78.2324 175.694 77.6845 174.693C77.4106 174.206 77.2722 173.603 77.3875 173.027C77.4942 172.447 77.8547 171.942 78.3016 171.637C78.7486 171.319 79.2705 171.221 79.7406 171.207L80.0895 171.213L80.375 171.233C80.5682 171.247 80.7585 171.268 80.9459 171.282C81.7303 171.343 82.4656 171.556 83.0654 171.772C84.2794 172.216 85.2109 172.652 85.851 172.966C86.5345 173.303 86.8632 173.525 86.7997 173.575C86.7363 173.624 86.3355 173.557 85.6924 173.387C84.9369 173.165 83.9767 172.882 82.8232 172.545C82.2147 172.384 81.5948 172.248 80.8825 172.234C80.6979 172.228 80.5076 172.219 80.3173 172.213L80.0203 172.202L79.7781 172.213C79.4666 172.239 79.1465 172.314 78.913 172.505C78.4256 172.856 78.2959 173.534 78.665 174.14C79.0168 174.771 79.7579 175.204 80.6114 175.564C83.5528 176.842 86.4018 177.747 88.6222 178.275L88.1147 178.863C87.1948 175.801 86.6758 173.704 86.7997 173.575Z" fill="#343434"/>
<path d="M141.979 173.575C142.103 173.704 141.581 175.801 140.664 178.863L140.153 178.275C142.374 177.747 145.217 176.842 148.155 175.57C148.38 175.478 148.591 175.383 148.772 175.285C148.974 175.195 149.144 175.077 149.315 174.962C149.649 174.728 149.937 174.454 150.105 174.148C150.48 173.543 150.358 172.871 149.874 172.513C149.39 172.136 148.697 172.179 147.968 172.283C147.256 172.381 146.589 172.528 145.978 172.669C143.539 173.257 142.036 173.733 141.979 173.575C141.924 173.433 143.322 172.689 145.762 171.885C146.373 171.692 147.051 171.493 147.809 171.346C148.204 171.279 148.565 171.193 149.061 171.207C149.531 171.227 150.05 171.337 150.494 171.654C150.938 171.963 151.293 172.47 151.397 173.047C151.506 173.627 151.362 174.226 151.082 174.708C150.534 175.703 149.508 176.239 148.611 176.626C145.586 177.932 142.676 178.765 140.315 179.163L139.533 179.299L139.804 178.572C141.018 175.339 141.855 173.442 141.979 173.575Z" fill="#343434"/>
<path d="M114.835 201.679C99.4448 201.679 86.9614 189.201 86.9614 173.808V168.332H142.702V173.808C142.702 189.201 130.225 201.679 114.835 201.679Z" fill="#96C6C7"/>
<path d="M142.953 169.013H86.5259V167.848H142.953V169.013Z" fill="#DAF0F3"/>
<path d="M37.9248 154.883H60.994V199.51H37.9248V154.883Z" fill="#B3DFD9"/>
<path d="M59.4427 198.385H39.4734V169.001H59.4427V198.385Z" fill="#CCE9E6"/>
<path d="M40.6702 183.953L58.047 161.241" stroke="#CCE9E6" stroke-width="16.3827" stroke-miterlimit="10" stroke-linecap="round"/>
<path d="M40.7334 179.212L55.9418 158.808" stroke="#CCE9E6" stroke-width="16.3827" stroke-miterlimit="10" stroke-linecap="round"/>
<path d="M36.4282 165.604C36.4282 165.604 33.409 159.537 32.2382 154.43C31.5548 151.448 28.4462 138.187 27.3475 139.807C26.2489 141.422 28.5414 149.015 29.6227 152.469C30.4936 155.255 33.432 163.571 33.432 163.571C33.432 163.571 24.8762 146.754 22.2752 146.408C19.6713 146.059 24.0717 152.481 24.9541 153.79C27.8983 158.156 29.8621 160.993 32.4487 164.324C32.4487 164.324 14.2961 146.664 12.4016 149.28C10.507 151.893 19.305 155.569 23.4085 158.6C26.5545 160.927 33.3571 166.567 33.3571 166.567C33.3571 166.567 32.3824 164.935 28.8701 162.634C23.5815 159.171 14.3711 154.966 13.829 156.749C13.0908 159.168 18.2439 159.993 22.6501 161.685C32.466 165.457 33.6051 168.892 33.6051 168.892L36.4282 165.604Z" fill="#3B6657"/>
<path d="M40.1078 165.835C40.1078 165.835 37.599 162.288 33.4581 165.221C29.3171 168.153 31.947 173.396 33.2216 174.835C34.4962 176.274 46.0712 188.238 47.6197 191.162C49.1682 194.086 54.3674 201.881 56.0544 201.272C57.7384 200.661 56.4552 198.631 55.7689 193.547C55.0797 188.463 52.7209 182.883 49.6526 179.117C46.5844 175.357 40.1078 165.835 40.1078 165.835Z" fill="#F58A3F"/>
<path d="M41.76 168.779C39.5136 169.422 38.0343 171.478 35.6611 171.836C34.9402 171.943 35.2487 173.036 35.9639 172.923C38.3111 172.571 40.0904 170.743 42.1349 169.673C42.628 169.414 42.2906 168.626 41.76 168.779Z" fill="#D86D43"/>
<path d="M45.4741 173.863C44.5888 174.062 43.7872 174.67 43.0201 175.143C42.1723 175.665 41.3332 176.193 40.4883 176.718C39.8625 177.104 40.4335 178.093 41.0592 177.701C41.9013 177.173 42.7491 176.649 43.5911 176.115C44.3553 175.636 45.2636 175.184 45.8346 174.477C46.0595 174.197 45.8519 173.779 45.4741 173.863Z" fill="#D86D43"/>
<path d="M49.7939 179.933C48.9663 180.4 48.1992 180.974 47.4149 181.51C46.6766 182.012 45.8865 182.482 45.2146 183.073C44.7475 183.486 45.3502 184.224 45.8721 183.924C46.6911 183.451 47.4466 182.84 48.2223 182.298C48.9576 181.79 49.716 181.297 50.385 180.7C50.806 180.325 50.2668 179.662 49.7939 179.933Z" fill="#D86D43"/>
<path d="M53.7936 187.523C53.1535 187.774 52.5796 188.183 52.0029 188.555C51.3916 188.953 50.7687 189.334 50.1775 189.755C49.6095 190.158 50.1199 191.081 50.737 190.706C51.3598 190.331 51.9568 189.91 52.5623 189.504C53.1304 189.129 53.7504 188.769 54.2348 188.278C54.529 187.978 54.232 187.35 53.7936 187.523Z" fill="#D86D43"/>
<path d="M63.2663 201.5C63.2663 201.5 78.6563 186.113 68.3992 184.832C58.1391 183.546 53.0091 192.953 53.0091 192.953C53.0091 192.953 64.1198 177.995 54.2923 176.285C44.462 174.575 46.1691 203.21 46.1691 203.21L63.2663 201.5Z" fill="#A9BC8B"/>
<path d="M46.4172 200.217C46.4172 200.217 51.1146 172.435 39.5743 173.292C28.0339 174.145 31.4568 186.542 31.4568 186.542C31.4568 186.542 27.6071 169.869 20.3403 174.143C13.0764 178.416 23.7632 191.669 23.7632 191.669C23.7632 191.669 9.23251 184.829 11.3693 190.813C13.5061 196.794 25.9 203.21 25.9 203.21L46.4172 200.217Z" fill="#347753"/>
<path d="M26.5864 207.287H59.6561C64.4112 207.287 68.2695 203.432 68.2695 198.677H17.9729C17.9729 203.432 21.8312 207.287 26.5864 207.287Z" fill="#E9D0C9"/>
<path d="M34.5596 200.413C34.5596 197.091 37.2529 190.51 40.5749 190.51C43.8997 190.51 46.5959 197.091 46.5959 200.413C46.5959 203.735 43.8997 206.428 40.5749 206.428C37.2529 206.428 34.5596 203.735 34.5596 200.413Z" fill="#F1E6E1"/>
<path d="M48.8423 200.413C48.8423 197.091 51.5414 190.51 54.8633 190.51C58.1853 190.51 60.8786 197.091 60.8786 200.413C60.8786 203.735 58.1853 206.428 54.8633 206.428C51.5414 206.428 48.8423 203.735 48.8423 200.413Z" fill="#F1E6E1"/>
<path d="M63.125 200.413C63.125 197.091 65.8241 190.51 69.1461 190.51C72.468 190.51 75.1614 197.091 75.1614 200.413C75.1614 203.735 72.468 206.428 69.1461 206.428C65.8241 206.428 63.125 203.735 63.125 200.413Z" fill="#F1E6E1"/>
<path d="M75.6141 198.466H34.153C33.1091 198.466 32.2642 199.314 32.2642 200.355C32.2642 201.007 32.2527 201.656 32.2527 202.307C32.2527 202.619 32.2527 202.933 32.2585 203.245C32.27 203.922 33.0457 203.686 33.4869 203.686C34.0204 203.686 34.4846 204.052 34.6086 204.571C34.9864 206.163 36.408 207.29 38.0459 207.29H43.1471C44.7821 207.29 46.2038 206.163 46.5815 204.571C46.7055 204.052 47.1698 203.686 47.7033 203.686H47.7754C48.3089 203.686 48.7731 204.052 48.8971 204.571C49.2749 206.163 50.6965 207.29 52.3344 207.29H57.4356C59.0706 207.29 60.4923 206.163 60.87 204.571C60.994 204.052 61.4583 203.686 61.9918 203.686H62.0639C62.5973 203.686 63.0616 204.052 63.1856 204.571C63.5634 206.163 64.985 207.29 66.62 207.29H71.7241C73.3591 207.29 74.7808 206.163 75.1585 204.571C75.2825 204.052 75.7468 203.686 76.2803 203.686C76.5744 203.686 76.9781 203.691 77.2694 203.686C77.4049 203.683 77.5029 203.691 77.5 203.533C77.4943 203.195 77.5029 202.466 77.5029 202.111V200.355C77.5029 199.314 76.658 198.466 75.6141 198.466Z" fill="#5B5D9A"/>
<path d="M34.2827 202.613C48.081 202.279 61.8821 202.567 75.6804 202.233C76.0899 202.221 76.0899 201.587 75.6804 201.595C61.8821 201.933 48.081 201.641 34.2827 201.976C33.8732 201.987 33.8732 202.625 34.2827 202.613Z" fill="#FFFEFF"/>
<path d="M182.121 176.186L177.475 181.198V207.466H188.172V181.198L182.121 176.186Z" fill="#F4856D"/>
<path d="M182.118 175.002V176.186L186.35 181.196V207.466H196.119V181.196L191.9 176.186V175.002H182.118Z" fill="#FBBB7B"/>
<path d="M186.439 181.488C189.418 181.523 192.399 181.452 195.378 181.488C195.645 181.491 195.645 181.077 195.378 181.074C192.399 181.037 189.418 181.109 186.439 181.074C186.173 181.07 186.171 181.484 186.439 181.488Z" fill="#F27253"/>
<path d="M182.882 176.483C185.726 176.474 188.571 176.472 191.415 176.465C191.682 176.463 191.682 176.049 191.415 176.051C188.571 176.058 185.726 176.062 182.882 176.069C182.615 176.069 182.613 176.483 182.882 176.483Z" fill="#F27253"/>
<path d="M203.109 197.623C203.27 196.12 202.617 194.618 201.312 193.679C200.789 193.302 200.13 192.983 199.302 192.797C195.985 192.049 194.409 194.03 194.201 194.366C193.993 194.702 192.169 196.389 192.874 199.535C193.579 202.679 195.528 203.318 196.854 203.431C198.183 203.541 200.837 203.541 201.956 201.82C202.667 200.727 202.977 198.848 203.109 197.623Z" fill="#D04943"/>
<path d="M198.546 193.519C198.825 193.558 199.044 193.71 199.261 193.855C199.508 193.226 199.831 192.576 200.284 192.09C200.299 192.03 200.336 191.975 200.391 191.949C200.425 191.936 200.46 191.919 200.49 191.897C200.748 191.743 200.993 192.069 200.859 192.301C200.508 192.908 200.2 193.528 199.914 194.165C199.935 194.167 199.957 194.172 199.981 194.174C199.998 194.139 200.033 194.111 200.078 194.104C200.133 194.041 200.237 194.011 200.306 194.044C200.451 194.111 200.469 194.2 200.484 194.351C200.492 194.458 200.466 194.573 200.358 194.622C200.117 194.731 199.844 194.74 199.578 194.679C199.454 194.735 199.302 194.718 199.181 194.603C199.144 194.564 199.118 194.529 199.096 194.49C198.775 194.302 198.515 194.013 198.409 193.679C198.383 193.601 198.465 193.508 198.546 193.519Z" fill="#636C57"/>
<path d="M192.443 195.487C192.135 194.007 191.053 192.782 189.522 192.285C188.911 192.09 188.189 191.986 187.341 192.064C183.953 192.37 183.062 194.739 182.968 195.125C182.873 195.511 181.652 197.673 183.289 200.45C184.926 203.225 186.979 203.234 188.276 202.935C189.572 202.633 192.1 201.818 192.636 199.836C192.978 198.577 192.694 196.695 192.443 195.487Z" fill="#F9A73D"/>
<path d="M186.84 192.986C187.118 192.936 187.374 193.012 187.625 193.085C187.666 192.409 187.775 191.689 188.057 191.089C188.052 191.028 188.07 190.963 188.113 190.926C188.143 190.9 188.172 190.87 188.195 190.841C188.393 190.614 188.724 190.852 188.668 191.112C188.518 191.797 188.419 192.48 188.341 193.174C188.362 193.17 188.382 193.17 188.406 193.163C188.414 193.126 188.436 193.092 188.477 193.07C188.51 192.994 188.601 192.931 188.677 192.94C188.835 192.962 188.88 193.04 188.939 193.178C188.98 193.276 188.991 193.395 188.902 193.478C188.705 193.653 188.451 193.749 188.178 193.77C188.078 193.861 187.927 193.89 187.777 193.818C187.729 193.794 187.697 193.766 187.664 193.738C187.3 193.658 186.964 193.462 186.762 193.178C186.715 193.113 186.76 192.999 186.84 192.986Z" fill="#7D886E"/>
<path d="M212.54 193.617C211.549 192.476 210.008 191.932 208.427 192.244C207.796 192.372 207.116 192.634 206.411 193.114C203.603 195.032 203.981 197.539 204.087 197.918C204.191 198.299 204.184 200.784 206.966 202.412C209.747 204.038 211.54 203.045 212.527 202.15C213.513 201.254 215.321 199.312 214.825 197.32C214.508 196.053 213.349 194.549 212.54 193.617Z" fill="#F9A73D"/>
<path d="M206.426 194.161C206.645 193.983 206.903 193.926 207.157 193.866C206.866 193.257 206.61 192.578 206.563 191.915C206.53 191.862 206.517 191.797 206.535 191.741C206.55 191.704 206.558 191.67 206.563 191.628C206.628 191.336 207.033 191.383 207.109 191.637C207.315 192.309 207.56 192.953 207.829 193.597C207.846 193.582 207.866 193.571 207.881 193.556C207.872 193.517 207.874 193.478 207.9 193.436C207.892 193.354 207.933 193.257 208.007 193.226C208.154 193.17 208.234 193.215 208.354 193.309C208.438 193.374 208.507 193.475 208.468 193.586C208.384 193.838 208.204 194.043 207.979 194.197C207.933 194.325 207.818 194.421 207.651 194.432C207.599 194.434 207.554 194.427 207.51 194.416C207.155 194.523 206.764 194.518 206.45 194.371C206.376 194.334 206.363 194.213 206.426 194.161Z" fill="#7D886E"/>
<path d="M186.587 207.466H209.776C213.11 207.466 215.814 204.76 215.814 201.426H180.549C180.549 204.76 183.25 207.466 186.587 207.466Z" fill="#76533B"/>
</g>
</g>
<defs>
<clipPath id="clip0_154_209">
<rect width="229" height="229" fill="white"/>
</clipPath>
</defs>
</svg>
