<svg width="1233" height="898" viewBox="0 0 1233 898" fill="none" xmlns="http://www.w3.org/2000/svg">
<path d="M88.0548 148.248L101.004 146.768C103.224 146.521 105.074 145.781 106.554 144.548C108.034 143.315 109.267 141.835 110.254 140.108C113.46 133.695 116.297 127.282 118.763 120.869C121.476 114.456 123.943 106.563 126.163 97.1905C126.656 94.724 126.039 91.8875 124.313 88.681C122.586 85.4746 119.75 83.9946 115.803 84.2413L92.1246 85.7212L88.0548 148.248ZM131.712 10.9856C145.525 10.2456 156.871 11.3556 165.75 14.3154C174.63 17.0286 181.659 21.0983 186.839 26.5247C192.019 31.951 195.595 38.4873 197.568 46.1335C199.788 53.5331 200.898 61.426 200.898 69.8121C200.898 78.1983 199.788 86.8311 197.568 95.7106C195.595 104.59 192.882 113.47 189.429 122.349C185.976 131.229 182.029 139.861 177.59 148.248C173.15 156.634 168.587 164.527 163.9 171.926L202.748 224.463C206.941 230.383 208.174 236.426 206.448 242.592C204.968 248.758 201.762 253.445 196.828 256.651L171.3 272.93C164.887 276.877 158.844 278.11 153.171 276.63C147.745 275.15 142.935 271.82 138.742 266.641L83.9851 196.345L79.9153 255.171C78.9287 269.23 71.8991 277 58.8266 278.48L37.3678 280.7C33.9147 281.193 30.5849 280.823 27.3784 279.59C24.4186 278.357 21.7054 276.63 19.2389 274.41C17.019 271.944 15.1691 269.23 13.6892 266.271C12.4559 263.064 11.9626 259.734 12.2093 256.281L20.7188 39.1039C20.9654 32.4443 22.9387 27.018 26.6384 22.8249C30.5849 18.3852 36.3812 15.9186 44.0274 15.4253L131.712 10.9856ZM367.556 11.3556C374.956 11.1089 380.875 13.6988 385.315 19.1251C390.001 24.3048 391.851 30.3478 390.865 37.2541L386.795 64.2625C385.808 70.6754 383.465 75.7318 379.765 79.4316C376.312 83.1314 371.256 85.1046 364.596 85.3512L302.44 86.4612L300.22 114.58L341.288 112.73C350.66 112.236 357.567 114.58 362.006 119.759C366.693 124.939 368.543 131.352 367.556 138.998L365.336 157.497C364.596 164.897 362.253 170.816 358.307 175.256C354.607 179.449 348.441 181.669 339.808 181.916L295.41 183.765L293.56 207.814L346.097 204.854C355.47 204.361 362.5 206.704 367.186 211.884C371.873 217.064 373.599 223.97 372.366 232.603L369.036 256.651C368.049 263.064 365.706 268.121 362.006 271.82C358.553 275.273 353.004 277.247 345.357 277.74L245.833 281.44C237.94 281.686 232.021 279.343 228.074 274.41C224.128 269.477 222.278 263.927 222.525 257.761L231.404 39.8439C232.144 25.5381 239.79 18.0152 254.343 17.2752L367.556 11.3556ZM592.295 225.943C589.582 242.222 584.649 254.678 577.496 263.311C570.589 271.944 560.97 277 548.637 278.48C536.305 279.96 523.232 280.946 509.42 281.44C495.854 282.18 483.891 281.81 473.532 280.33C468.352 279.59 463.049 278.233 457.623 276.26C452.196 274.04 447.14 271.08 442.454 267.381C437.767 263.434 433.821 258.501 430.614 252.581C427.408 246.662 425.435 239.509 424.695 231.123C423.708 219.53 422.968 206.334 422.475 191.535C422.228 176.489 422.105 161.443 422.105 146.398C422.105 131.105 422.351 116.676 422.845 103.11C423.338 89.2977 424.078 77.8283 425.065 68.7022C427.038 50.2033 433.081 36.3908 443.194 27.2646C453.306 18.1385 468.229 12.5888 487.961 10.6156C497.827 9.629 509.543 9.25902 523.109 9.50567C536.675 9.50567 552.337 10.4923 570.096 12.4655C585.635 14.4387 596.858 20.1117 603.764 29.4845C610.917 38.6106 612.89 51.6832 609.684 68.7022L604.134 99.0404C602.901 105.453 600.311 110.51 596.365 114.21C592.665 117.909 587.978 120.006 582.305 120.499L554.557 121.979C551.104 122.226 547.897 121.732 544.938 120.499C542.224 119.019 539.881 117.169 537.908 114.949C535.935 112.73 534.332 110.14 533.098 107.18C532.112 104.22 531.618 101.26 531.618 98.3005V95.3406C531.618 91.6409 530.508 88.9277 528.289 87.2011C526.315 85.4746 524.219 84.7346 521.999 84.9812L509.42 86.0912C505.967 86.5845 503.253 87.6944 501.28 89.421C499.307 90.9009 498.197 94.1074 497.95 99.0404C497.704 104.22 497.457 111.62 497.21 121.239C496.964 130.612 496.717 140.725 496.47 151.577C496.224 162.183 496.1 172.789 496.1 183.395C496.1 194.002 496.347 202.881 496.84 210.034C497.087 213.98 498.074 216.694 499.8 218.173C501.527 219.407 504.117 219.9 507.57 219.653L513.859 219.283C516.819 219.037 518.916 218.42 520.149 217.433C521.382 216.447 522.246 213.98 522.739 210.034L523.849 202.264C524.835 195.605 527.302 190.302 531.248 186.355C535.441 182.409 540.744 180.189 547.157 179.696L572.686 177.846C575.892 177.599 578.976 178.216 581.935 179.696C585.142 180.929 587.855 182.779 590.075 185.245C592.295 187.465 593.898 190.302 594.885 193.755C596.118 196.961 596.488 200.291 595.995 203.744L592.295 225.943ZM780.891 11.3556C788.291 11.1089 794.21 13.6988 798.65 19.1251C803.337 24.3048 805.186 30.3478 804.2 37.2541L800.13 64.2625C799.143 70.6754 796.8 75.7318 793.101 79.4316C789.647 83.1314 784.591 85.1046 777.931 85.3512L715.775 86.4612L713.555 114.58L754.623 112.73C763.996 112.236 770.902 114.58 775.342 119.759C780.028 124.939 781.878 131.352 780.891 138.998L778.671 157.497C777.931 164.897 775.588 170.816 771.642 175.256C767.942 179.449 761.776 181.669 753.143 181.916L708.745 183.765L706.896 207.814L759.432 204.854C768.805 204.361 775.835 206.704 780.521 211.884C785.208 217.064 786.934 223.97 785.701 232.603L782.371 256.651C781.385 263.064 779.041 268.121 775.342 271.82C771.888 275.273 766.339 277.247 758.693 277.74L659.168 281.44C651.275 281.686 645.356 279.343 641.409 274.41C637.463 269.477 635.613 263.927 635.86 257.761L644.739 39.8439C645.479 25.5381 653.125 18.0152 667.678 17.2752L780.891 11.3556ZM903.516 148.248L919.795 146.028C921.275 145.781 922.755 145.164 924.235 144.178C925.715 142.945 926.825 140.971 927.565 138.258L937.184 96.8206C938.417 91.8875 938.417 88.3111 937.184 86.0912C935.951 83.8713 932.868 82.8847 927.934 83.1314L908.696 84.2413L903.516 148.248ZM928.304 10.2456C943.844 9.25903 957.409 10.2456 969.002 13.2054C980.841 16.1653 990.214 20.975 997.12 27.6346C1004.03 34.0476 1008.47 42.3104 1010.44 52.4232C1012.41 62.5359 1011.55 74.2519 1007.85 87.5711L987.501 161.197C983.555 175.503 978.745 185.739 973.072 191.905C967.645 197.825 960.123 201.031 950.503 201.524L900.186 203.744L896.856 253.321C896.363 259.981 894.39 265.531 890.937 269.97C887.73 274.41 882.797 277 876.138 277.74L856.529 279.96C847.649 280.946 840.62 279.097 835.44 274.41C830.507 269.477 828.287 263.064 828.78 255.171L838.03 37.624C838.276 31.4577 840.25 26.1547 843.949 21.715C847.896 17.2752 853.446 14.8087 860.598 14.3154L928.304 10.2456ZM1202.78 9.50567C1205.99 9.25902 1209.2 9.75233 1212.4 10.9856C1215.61 12.2188 1218.44 13.9454 1220.91 16.1653C1223.38 18.3852 1225.23 21.0983 1226.46 24.3048C1227.69 27.2646 1228.06 30.4711 1227.57 33.9243L1223.5 62.7825C1221.53 77.335 1214.13 84.9812 1201.3 85.7212L1160.23 87.5711L1155.42 254.061C1154.93 269.354 1147.41 277.37 1132.86 278.11L1107.33 279.59C1090.56 280.33 1082.42 271.944 1082.91 254.431L1089.2 87.9411L1048.13 89.791C1044.18 90.0376 1040.48 89.5443 1037.03 88.311C1033.83 86.8311 1031.11 84.9812 1028.89 82.7614C1026.67 80.2949 1024.95 77.4584 1023.71 74.2519C1022.73 71.0454 1022.48 67.7156 1022.97 64.2625L1025.93 38.734C1026.92 31.3344 1029.63 26.1547 1034.07 23.1949C1038.51 20.235 1043.57 18.5085 1049.24 18.0152L1202.78 9.50567Z" fill="#A35D20"/>
<path d="M130.857 760.84C129.242 781.034 116.318 792.545 92.0848 795.372L59.9763 799.007C53.9181 799.814 48.4657 799.209 43.6191 797.189C38.7725 795.17 34.7337 792.343 31.5027 788.708C28.2717 784.669 25.8484 780.226 24.2328 775.38C22.6173 770.129 21.8096 765.081 21.8096 760.234L36.3493 405.829C37.5609 382.404 50.0812 370.085 73.9102 368.874L240.511 358.575C252.627 358.171 262.321 362.412 269.59 371.297C277.264 379.779 280.293 389.674 278.678 400.982L272.014 445.207C270.398 455.708 266.561 463.988 260.503 470.046C254.849 476.104 246.569 479.335 235.664 479.739L152.667 482.162L149.032 542.744L197.498 539.109C212.845 537.898 224.154 541.735 231.424 550.62C239.097 559.102 242.126 569.602 240.511 582.123L236.876 609.385C235.261 621.501 231.424 630.992 225.365 637.858C219.307 644.724 209.21 648.561 195.074 649.369L141.156 653.004L130.857 760.84ZM425.741 754.782C424.125 778.611 411.403 791.737 387.574 794.16L357.889 797.189C344.965 798.401 334.464 794.968 326.386 786.89C318.308 778.813 314.674 768.514 315.481 755.993L329.415 407.646C330.223 395.934 334.06 387.25 340.926 381.596C347.792 375.538 356.071 372.105 365.764 371.297L408.778 367.056C415.644 366.249 421.702 366.854 426.952 368.874C432.607 370.489 437.251 373.115 440.886 376.749C444.521 380.384 447.146 384.625 448.762 389.472C450.781 394.318 451.589 399.165 451.185 404.011L425.741 754.782ZM597.321 359.786C607.418 358.979 615.091 360.998 620.342 365.845C625.996 370.691 630.439 375.942 633.67 381.596L739.689 593.633L743.323 402.194C743.727 390.481 747.362 381.394 754.228 374.932C761.094 368.066 769.374 364.229 779.067 363.421L806.935 360.392C813.397 359.585 819.253 360.392 824.504 362.816C829.754 364.835 834.197 367.864 837.832 371.903C841.467 375.538 844.092 379.779 845.707 384.625C847.727 389.472 848.736 394.116 848.736 398.559L833.591 757.811C833.187 767.504 830.158 776.187 824.504 783.861C819.253 791.131 811.175 795.372 800.271 796.583L771.191 799.613C761.902 800.42 753.824 798.805 746.958 794.766C740.092 790.727 734.842 785.275 731.207 778.409L625.794 582.729L623.371 760.84C623.371 771.745 619.938 780.832 613.072 788.102C606.61 794.968 598.734 798.805 589.445 799.613L556.731 802.036C543.806 802.844 533.306 799.411 525.228 791.737C517.554 784.063 513.919 774.572 514.323 763.263L528.863 402.194C529.267 391.693 532.7 382.606 539.162 374.932C545.624 367.258 554.711 363.017 566.424 362.21L597.321 359.786ZM1016.14 691.171L1031.28 691.776C1042.59 692.18 1050.87 689.555 1056.12 683.901C1061.78 677.843 1065.61 669.765 1067.63 659.668C1068.04 657.648 1068.84 653.206 1070.06 646.34C1071.27 639.07 1072.48 630.588 1073.69 620.895C1075.31 611.202 1076.72 600.903 1077.93 589.998C1079.55 578.69 1080.96 567.987 1082.17 557.89C1083.38 547.389 1084.39 538.1 1085.2 530.022C1086.01 521.945 1086.41 516.088 1086.41 512.453C1086.41 500.741 1082.17 492.461 1073.69 487.615C1065.61 482.768 1056.73 480.749 1047.03 481.556L1030.68 482.162L1016.14 691.171ZM1059.76 360.392C1079.14 359.181 1097.72 359.786 1115.49 362.21C1133.67 364.633 1149.62 369.682 1163.35 377.355C1177.49 385.029 1188.59 395.934 1196.67 410.07C1205.15 424.205 1209.39 442.38 1209.39 464.593C1209.39 480.749 1208.18 499.933 1205.76 522.146C1203.74 543.956 1201.11 565.968 1197.88 588.181C1194.65 609.991 1191.22 630.588 1187.58 649.975C1184.35 668.957 1181.32 683.699 1178.5 694.2C1175.67 705.104 1171.23 716.413 1165.17 728.126C1159.11 739.838 1150.83 750.541 1140.33 760.234C1129.83 769.927 1116.5 778.207 1100.35 785.073C1084.19 791.535 1064.4 795.17 1040.98 795.978L939.198 799.613C933.543 799.613 928.293 798.603 923.446 796.583C919.004 794.564 914.965 791.737 911.33 788.102C907.695 784.467 904.868 780.226 902.849 775.38C900.829 770.533 899.819 765.485 899.819 760.234L914.965 402.194C915.773 390.885 919.61 382.202 926.476 376.144C933.745 370.085 942.833 366.652 953.737 365.845L1059.76 360.392Z" fill="#A35D20"/>
</svg>
