<svg width="1368" height="980" viewBox="0 0 1368 980" fill="none" xmlns="http://www.w3.org/2000/svg">
<path fill-rule="evenodd" clip-rule="evenodd" d="M21.6506 263.212C2.05455 253.124 -5.65321 229.06 4.43456 209.464C14.5223 189.868 38.5858 182.16 58.1819 192.248C260.688 296.496 362.538 364.802 451.531 493.193L460.415 494.919L1281.53 706.889C1303.22 712.487 1312.55 738.098 1299.55 756.336L1260.66 810.868C1203.34 883.796 1086.81 961.216 959.905 976.38C840.981 983.564 730.84 985.031 603.933 890.181C459.751 794.636 396.8 631.627 379.977 530.179C303.811 423.505 215.326 362.914 21.6506 263.212Z" fill="#A35D20"/>
<path d="M715.533 94.474L722.887 95.4902C724.147 95.6683 725.272 95.5219 726.263 95.051C727.254 94.58 728.144 93.9381 728.932 93.1252C731.609 90.041 734.082 86.9044 736.35 83.7154C738.754 80.5614 741.232 76.556 743.783 71.6992C744.405 70.4082 744.466 68.7561 743.967 66.7427C743.468 64.7293 742.113 63.5114 739.901 63.089L726.628 60.5543L715.533 94.474ZM759.046 24.9254C766.771 26.472 772.873 28.6902 777.353 31.5798C781.868 34.3333 785.17 37.5735 787.26 41.3003C789.349 45.0271 790.398 49.1393 790.404 53.637C790.581 58.0335 790.077 62.5451 788.89 67.1717C787.703 71.7984 785.869 76.404 783.387 80.9886C781.042 85.6082 778.289 90.123 775.127 94.5331C771.965 98.9432 768.566 103.147 764.93 107.146C761.293 111.144 757.659 114.853 754.026 118.272L768.023 152.754C769.499 156.614 769.324 160.122 767.498 163.28C765.809 166.472 763.377 168.604 760.202 169.675L743.814 175.043C739.717 176.313 736.209 176.138 733.288 174.518C730.504 172.934 728.322 170.416 726.742 166.965L706.481 120.433L695.91 152.312C693.376 159.929 688.398 163.22 680.977 162.187L668.824 160.374C666.849 160.158 665.064 159.482 663.47 158.348C662.011 157.249 660.759 155.912 659.712 154.338C658.837 152.664 658.2 150.905 657.802 149.062C657.576 147.119 657.775 145.212 658.4 143.342L693.831 24.7296C694.91 21.0904 696.766 18.376 699.401 16.5863C702.206 14.6954 705.753 14.155 710.042 14.965L759.046 24.9254ZM889.108 58.508C893.225 59.4192 896.125 61.6858 897.806 65.3078C899.659 68.8287 899.824 72.4244 898.302 76.095L892.234 90.4195C890.783 93.8179 888.774 96.2759 886.209 97.7934C883.781 99.3459 880.712 99.7189 877.003 98.9125L842.554 90.728L837.35 105.927L860.269 110.718C865.509 111.773 868.988 114.043 870.704 117.529C872.557 121.05 872.67 124.85 871.043 128.928L867.2 138.82C865.745 142.798 863.614 145.732 860.809 147.623C858.174 149.412 854.458 149.764 849.66 148.679L824.905 143.416L820.48 156.422L849.884 162.224C855.125 163.278 858.671 165.566 860.524 169.087C862.376 172.608 862.351 176.662 860.449 181.251L855.208 194.047C853.757 197.445 851.748 199.903 849.183 201.421C846.79 202.837 843.449 203.14 839.16 202.33L783.729 190.286C779.34 189.305 776.406 187.175 774.927 183.894C773.447 180.614 773.212 177.291 774.221 173.924L809.961 54.9557C812.394 47.1679 817.677 44.0997 825.811 45.751L889.108 58.508ZM982.726 208.703C978.925 217.3 974.441 223.473 969.273 227.224C964.241 231.009 958.218 232.437 951.205 231.508C944.192 230.579 936.84 229.274 929.15 227.591C921.561 226.079 915.013 224.182 909.508 221.899C906.755 220.758 904.021 219.259 901.306 217.403C898.627 215.41 896.256 213.061 894.194 210.357C892.167 207.516 890.688 204.236 889.757 200.517C888.826 196.797 888.75 192.571 889.528 187.84C890.625 181.305 892.084 173.92 893.906 165.685C895.9 157.35 897.961 149.032 900.09 140.731C902.255 132.294 904.433 124.368 906.625 116.954C908.852 109.403 910.884 103.18 912.719 98.2852C916.426 88.3586 921.715 81.5935 928.586 77.9898C935.457 74.3862 944.475 73.4364 955.64 75.1404C961.223 75.9924 967.739 77.4464 975.188 79.5024C982.673 81.4224 991.174 84.1834 1000.69 87.7854C1008.99 91.0732 1014.37 95.7913 1016.86 101.94C1019.51 107.987 1018.75 115.478 1014.57 124.414L1007.22 140.366C1005.63 143.73 1003.49 146.153 1000.78 147.635C998.22 149.153 995.338 149.646 992.138 149.115L976.62 146.005C974.68 145.652 972.981 144.926 971.523 143.827C970.235 142.626 969.204 141.274 968.43 139.77C967.655 138.266 967.137 136.611 966.876 134.803C966.75 133.031 966.897 131.328 967.316 129.695L967.735 128.062C968.259 126.021 968.03 124.367 967.05 123.1C966.206 121.868 965.154 121.163 963.894 120.985L956.797 119.817C954.822 119.601 953.168 119.829 951.835 120.502C950.537 121.04 949.471 122.651 948.637 125.338C947.768 128.161 946.584 132.208 945.087 137.48C943.624 142.616 942.057 148.161 940.385 154.113C938.748 159.93 937.179 165.764 935.678 171.615C934.177 177.466 933.056 182.4 932.316 186.416C931.893 188.628 932.054 190.265 932.797 191.326C933.575 192.25 934.934 192.889 936.874 193.242L940.396 193.928C942.064 194.21 943.308 194.167 944.128 193.797C944.948 193.427 945.773 192.189 946.604 190.081L948.316 185.952C949.803 182.418 951.914 179.841 954.65 178.222C957.522 176.638 960.761 176.164 964.369 176.8L978.715 179.392C980.519 179.71 982.133 180.486 983.556 181.722C985.151 182.856 986.386 184.261 987.261 185.936C988.172 187.474 988.655 189.266 988.711 191.311C988.937 193.254 988.67 195.144 987.909 196.979L982.726 208.703ZM1117.14 117.006C1121.26 117.918 1124.16 120.184 1125.84 123.806C1127.7 127.327 1127.86 130.923 1126.34 134.593L1120.27 148.918C1118.82 152.316 1116.81 154.774 1114.25 156.292C1111.82 157.844 1108.75 158.217 1105.04 157.411L1070.59 149.226L1065.39 164.425L1088.31 169.217C1093.55 170.271 1097.02 172.541 1098.74 176.027C1100.59 179.548 1100.71 183.348 1099.08 187.427L1095.24 197.318C1093.78 201.296 1091.65 204.23 1088.85 206.121C1086.21 207.911 1082.49 208.263 1077.7 207.177L1052.94 201.914L1048.52 214.92L1077.92 220.723C1083.16 221.777 1086.71 224.064 1088.56 227.585C1090.41 231.106 1090.39 235.161 1088.49 239.749L1083.25 252.545C1081.79 255.944 1079.78 258.402 1077.22 259.919C1074.83 261.336 1071.49 261.639 1067.2 260.829L1011.77 248.785C1007.38 247.804 1004.44 245.673 1002.96 242.393C1001.48 239.113 1001.25 235.789 1002.26 232.422L1038 113.454C1040.43 105.666 1045.71 102.598 1053.85 104.249L1117.14 117.006ZM1165.42 209.884L1174.72 210.964C1175.57 211.037 1176.47 210.906 1177.43 210.571C1178.42 210.1 1179.31 209.169 1180.1 207.777L1191.28 186.277C1192.65 183.73 1193.16 181.757 1192.79 180.358C1192.43 178.959 1190.87 177.978 1188.11 177.416L1177.34 175.305L1165.42 209.884ZM1198.63 137.257C1207.34 138.912 1214.69 141.376 1220.66 144.65C1226.78 147.958 1231.27 151.938 1234.13 156.59C1237.04 161.105 1238.32 166.292 1237.97 172.151C1237.63 178.009 1235.5 184.351 1231.57 191.175L1209.92 228.915C1205.72 236.249 1201.62 241.215 1197.62 243.814C1193.79 246.312 1189.18 247.017 1183.81 245.927L1155.73 240.031L1146.88 266.911C1145.66 270.515 1143.79 273.298 1141.26 275.259C1138.86 277.254 1135.77 277.985 1131.99 277.451L1120.86 275.9C1115.82 275.188 1112.2 273.172 1110.01 269.854C1107.99 266.434 1107.67 262.582 1109.06 258.297L1144.95 139.585C1145.96 136.218 1147.8 133.572 1150.47 131.646C1153.27 129.755 1156.68 129.18 1160.7 129.92L1198.63 137.257ZM1350.16 175.695C1351.97 176.013 1353.67 176.739 1355.26 177.873C1356.86 179.007 1358.18 180.361 1359.22 181.935C1360.27 183.509 1360.91 185.267 1361.13 187.211C1361.39 189.018 1361.14 190.84 1360.38 192.675L1354.05 208.02C1350.91 215.77 1345.74 218.941 1338.56 217.534L1315.64 212.742L1289.43 303.914C1286.99 312.281 1281.7 315.639 1273.57 313.987L1259.28 311.191C1249.92 309.225 1246.62 303.447 1249.37 293.855L1276.4 202.893L1253.48 198.101C1251.27 197.679 1249.3 196.883 1247.57 195.714C1246.01 194.443 1244.77 193.039 1243.86 191.5C1242.99 189.825 1242.43 188.016 1242.21 186.072C1242.12 184.164 1242.45 182.292 1243.21 180.456L1248.46 166.791C1250.05 162.849 1252.28 160.375 1255.15 159.37C1258.02 158.366 1261.05 158.129 1264.25 158.659L1350.16 175.695Z" fill="#A35D20"/>
<path d="M645.779 424.559C642.071 435.351 633.408 439.823 619.79 437.974L601.762 435.463C598.344 435.055 595.454 433.962 593.092 432.182C590.73 430.401 588.922 428.293 587.668 425.858C586.47 423.202 585.77 420.439 585.567 417.568C585.42 414.477 585.686 411.61 586.365 408.965L643.904 217.627C647.844 205.015 656.4 200.046 669.571 202.721L761.915 220.42C768.582 221.896 773.277 225.566 776 231.432C779 237.134 779.268 242.957 776.804 248.901L766.977 272.099C764.626 277.602 761.374 281.583 757.22 284.04C753.287 286.554 748.317 287.158 742.311 285.852L696.686 275.557L686.223 308.104L713.176 312.904C721.719 314.392 727.353 318.068 730.076 323.934C733.075 329.635 733.258 335.789 730.624 342.394L724.825 356.76C722.248 363.145 718.826 367.787 714.559 370.685C710.293 373.584 704.246 374.264 696.421 372.726L666.493 367.162L645.779 424.559ZM807.524 462.529C803.307 475.304 794.528 480.685 781.187 478.672L764.566 476.17C757.345 475.022 752.096 471.679 748.819 466.141C745.542 460.603 745 454.475 747.194 447.757L803.555 259.639C805.635 253.361 808.944 249.16 813.481 247.036C818.076 244.692 823.074 243.978 828.476 244.894L852.538 248.6C856.398 249.121 859.618 250.299 862.201 252.136C865.06 253.809 867.226 255.891 868.701 258.383C870.176 260.876 871.014 263.557 871.217 266.427C871.641 269.354 871.403 272.112 870.505 274.7L807.524 462.529ZM956.43 271.024C962.053 271.997 965.957 274.173 968.143 277.552C970.55 280.988 972.239 284.474 973.211 288.012L1001.38 418.545L1030.16 314.599C1032.02 308.265 1035.27 303.815 1039.92 301.25C1044.63 298.465 1049.69 297.531 1055.09 298.447L1070.72 300.694C1074.36 301.158 1077.44 302.419 1079.96 304.476C1082.55 306.313 1084.55 308.587 1085.96 311.3C1087.44 313.792 1088.28 316.473 1088.48 319.344C1088.9 322.271 1088.8 324.946 1088.18 327.37L1029.63 521.268C1028.06 526.501 1025.19 530.814 1021.03 534.21C1017.15 537.442 1012.15 538.625 1006.03 537.76L989.736 535.342C984.555 534.483 980.374 532.471 977.193 529.306C974.012 526.141 971.91 522.431 970.888 518.176L940.761 396.653L914.508 493.496C912.982 499.446 909.837 503.924 905.073 506.93C900.586 509.772 895.752 510.763 890.57 509.903L872.381 506.646C865.217 505.278 859.968 501.935 856.634 496.617C853.521 491.356 852.866 485.669 854.67 479.555L913.142 284.581C914.832 278.908 917.977 274.43 922.577 271.147C927.177 267.865 932.729 266.823 939.233 268.022L956.43 271.024ZM1138.56 510.458L1146.74 512.909C1152.86 514.712 1157.74 514.439 1161.4 512.088C1165.33 509.574 1168.56 505.704 1171.07 500.477C1171.57 499.432 1172.64 497.121 1174.26 493.544C1175.94 489.747 1177.79 485.289 1179.8 480.17C1182.04 475.107 1184.25 469.686 1186.44 463.905C1188.91 457.961 1191.18 452.319 1193.25 446.98C1195.38 441.42 1197.23 436.493 1198.8 432.198C1200.37 427.904 1201.41 424.765 1201.92 422.782C1203.56 416.391 1202.41 411.28 1198.46 407.448C1194.73 403.673 1190.16 401.328 1184.76 400.412L1175.75 398.453L1138.56 510.458ZM1208.66 336.082C1219.41 338.134 1229.46 341.065 1238.82 344.875C1248.4 348.741 1256.39 353.729 1262.81 359.838C1269.45 366.003 1273.99 373.508 1276.41 382.351C1279.06 391.251 1278.83 401.762 1275.72 413.882C1273.46 422.697 1270.12 432.995 1265.69 444.776C1261.53 456.393 1257.02 468.035 1252.15 479.704C1247.33 491.151 1242.57 501.909 1237.88 511.978C1233.46 521.883 1229.74 529.503 1226.73 534.837C1223.66 540.391 1219.65 545.939 1214.71 551.482C1209.76 557.025 1203.75 561.706 1196.66 565.525C1189.57 569.344 1181.14 571.996 1171.37 573.481C1161.65 574.746 1150.34 573.959 1137.45 571.121L1081.41 558.858C1078.32 558.067 1075.6 556.781 1073.23 555.001C1071.09 553.277 1069.29 551.169 1067.81 548.677C1066.34 546.185 1065.39 543.475 1064.96 540.548C1064.54 537.621 1064.7 534.725 1065.43 531.86L1123.81 338.624C1125.83 332.566 1129.14 328.365 1133.74 326.021C1138.55 323.733 1143.99 323.132 1150.05 324.217L1208.66 336.082Z" fill="#A35D20"/>
</svg>
