<svg width="1337" height="1037" viewBox="0 0 1337 1037" fill="none" xmlns="http://www.w3.org/2000/svg">
<path d="M688.889 245.648C682.394 259.135 674.937 268.73 666.517 274.431C658.312 280.196 648.652 282.157 637.537 280.315C626.422 278.474 614.788 276.014 602.635 272.938C590.634 270.139 580.311 266.78 571.666 262.862C567.343 260.903 563.07 258.375 558.845 255.28C554.684 251.969 551.032 248.108 547.89 243.697C544.811 239.071 542.627 233.774 541.337 227.805C540.048 221.836 540.145 215.107 541.629 207.616C543.713 197.271 546.418 185.592 549.745 172.58C553.349 159.416 557.061 146.283 560.88 133.181C564.762 119.864 568.639 107.362 572.512 95.6742C576.448 83.7716 580.004 73.972 583.179 66.2754C589.593 50.6676 598.361 40.1736 609.484 34.7936C620.607 29.4136 635.01 28.3688 652.693 31.6592C661.535 33.3044 671.831 35.9562 683.582 39.6144C695.395 43.0579 708.783 47.8927 723.746 54.1188C736.777 59.7814 745.11 67.5701 748.744 77.4849C752.657 87.2475 751.057 99.1319 743.944 113.138L731.411 138.148C728.709 143.419 725.17 147.165 720.795 149.385C716.634 151.667 712.021 152.303 706.956 151.293L682.417 145.538C679.347 144.876 676.68 143.633 674.416 141.808C672.429 139.83 670.858 137.625 669.703 135.191C668.549 132.757 667.81 130.095 667.487 127.204C667.379 124.376 667.701 121.674 668.452 119.096L669.204 116.519C670.143 113.297 669.865 110.653 668.37 108.586C667.09 106.582 665.452 105.405 663.457 105.056L652.221 102.83C649.089 102.383 646.445 102.661 644.288 103.663C642.194 104.451 640.414 106.962 638.947 111.195C637.417 115.642 635.324 122.023 632.668 130.337C630.074 138.436 627.292 147.18 624.322 156.568C621.415 165.741 618.616 174.945 615.924 184.181C613.232 193.417 611.192 201.211 609.806 207.565C609.019 211.064 609.19 213.677 610.318 215.404C611.508 216.917 613.638 218.003 616.708 218.665L622.279 219.94C624.919 220.476 626.901 220.471 628.225 219.925C629.549 219.379 630.927 217.45 632.359 214.139L635.297 207.655C637.847 202.106 641.341 198.115 645.779 195.68C650.432 193.308 655.613 192.721 661.323 193.919L684.023 198.788C686.877 199.387 689.406 200.707 691.607 202.747C694.087 204.635 695.98 206.934 697.287 209.646C698.656 212.142 699.332 215.019 699.315 218.276C699.575 221.382 699.052 224.375 697.746 227.257L688.889 245.648ZM834.705 150.431C829.363 149.572 825.784 152.258 823.968 158.486L792.52 263.972C791.769 266.549 791.358 268.759 791.286 270.603C791.492 272.294 793.452 273.565 797.166 274.414L811.852 277.996C815.995 278.971 818.595 278.447 819.651 276.424C820.921 274.464 821.977 272.442 822.818 270.356L864.641 164.051C866.01 160.954 866.207 158.681 865.231 157.231C864.318 155.567 861.973 154.417 858.197 153.783L834.705 150.431ZM881.638 97.3474C895.698 100.28 906.938 104.489 915.36 109.973C924.059 115.306 930.248 121.654 933.927 129.018C937.606 136.383 939.053 144.611 938.267 153.703C937.481 162.795 934.771 172.492 930.137 182.793L882.219 290.818C879.079 297.593 875.648 304.166 871.926 310.538C868.419 316.973 863.919 322.419 858.425 326.876C852.994 331.119 846.448 333.988 838.788 335.484C831.191 336.765 821.915 335.809 810.961 332.616L773.173 321.95C763.508 319.133 755.381 315.832 748.794 312.047C742.207 308.263 737.101 303.396 733.476 297.445C730.128 291.343 728.355 283.835 728.157 274.922C728.173 266.071 730.029 255.31 733.723 242.638L765.532 129.917C768.161 120.896 770.876 113.182 773.676 106.774C776.539 100.151 779.84 94.8218 783.58 90.7853C787.535 86.8114 792.036 84.1618 797.083 82.8366C802.13 81.5113 808.045 81.6044 814.828 83.1157L881.638 97.3474ZM1022.85 205.274C1017.51 204.416 1013.93 207.101 1012.11 213.33L980.665 318.815C979.914 321.393 979.502 323.603 979.431 325.447C979.637 327.138 981.597 328.408 985.311 329.258L999.997 332.84C1004.14 333.814 1006.74 333.291 1007.8 331.268C1009.07 329.308 1010.12 327.285 1010.96 325.2L1052.79 218.894C1054.16 215.798 1054.35 213.525 1053.38 212.075C1052.46 210.411 1050.12 209.261 1046.34 208.626L1022.85 205.274ZM1069.78 152.191C1083.84 155.124 1095.08 159.333 1103.5 164.817C1112.2 170.149 1118.39 176.498 1122.07 183.862C1125.75 191.226 1127.2 199.455 1126.41 208.547C1125.63 217.639 1122.92 227.335 1118.28 237.636L1070.36 345.661C1067.22 352.436 1063.79 359.01 1060.07 365.382C1056.56 371.817 1052.06 377.263 1046.57 381.72C1041.14 385.963 1034.59 388.832 1026.93 390.328C1019.34 391.608 1010.06 390.652 999.106 387.459L961.318 376.794C951.652 373.976 943.526 370.675 936.939 366.891C930.352 363.107 925.246 358.239 921.621 352.289C918.273 346.186 916.5 338.678 916.302 329.765C916.318 320.915 918.174 310.154 921.867 297.481L953.677 184.761C956.306 175.74 959.021 168.026 961.821 161.618C964.684 154.995 967.985 149.665 971.725 145.629C975.68 141.655 980.18 139.005 985.227 137.68C990.274 136.355 996.19 136.448 1002.97 137.959L1069.78 152.191ZM1204.8 195.043C1208.08 195.767 1210.86 197.042 1213.12 198.867C1215.6 200.755 1217.49 203.054 1218.8 205.766C1220.38 208.325 1221.31 211.157 1221.57 214.262C1221.89 217.153 1221.57 219.855 1220.6 222.37L1182.35 324.823L1264.15 225.276C1267.95 221.025 1272.44 218.022 1277.61 216.267C1283 214.575 1288.78 215.912 1294.97 220.278L1313.29 232.96C1319.47 237.326 1322.75 242.476 1323.12 248.409C1323.76 254.189 1321.16 260.306 1315.32 266.76L1239.27 352.6L1251.59 419.46C1252.9 426.136 1251.92 431.908 1248.63 436.776C1245.57 441.708 1240.73 444.724 1234.11 445.826L1212.8 449.4C1205.97 450.439 1200.2 449.456 1195.48 446.45C1190.92 443.721 1187.82 438.741 1186.2 431.511L1170.57 355.645L1151.71 407.126C1147.1 419.763 1139.05 424.99 1127.57 422.808L1107.67 419.107C1105.03 418.57 1102.44 417.465 1099.9 415.792C1097.51 414.397 1095.49 412.527 1093.85 410.182C1092.2 407.838 1091.14 405.082 1090.66 401.914C1090.19 398.746 1090.59 395.368 1091.87 391.779L1154.45 205.883C1156.69 199.78 1159.82 195.448 1163.83 192.888C1167.84 190.328 1173.4 189.62 1180.53 190.764L1204.8 195.043Z" fill="#A35D20"/>
<path d="M535.623 386.52L552.533 378.521C557.236 376.225 561.095 373.682 564.109 370.893C567.171 367.935 569.048 365.272 569.737 362.906C570.92 358.85 570.331 355.836 567.972 353.865C565.831 351.773 563.299 350.394 560.377 349.725L550.415 347.096L535.623 386.52ZM513.133 447.63C522.887 450.657 530.006 451.082 534.492 448.905C539.146 446.778 542.36 442.672 544.134 436.587C545.71 431.179 544.893 425.806 541.681 420.468C538.518 414.962 534.155 410.114 528.591 405.925L513.133 447.63ZM585.447 308.071C593.827 310.147 600.897 312.942 606.658 316.455C612.469 319.799 617.043 323.608 620.381 327.882C623.769 331.987 625.886 336.363 626.732 341.011C627.796 345.539 627.663 350.084 626.333 354.648C624.855 359.718 622.532 364.542 619.363 369.12C616.413 373.578 613.006 377.719 609.14 381.544C605.275 385.368 601.205 388.95 596.931 392.288C592.706 395.458 588.616 398.483 584.658 401.364C591.307 410.637 595.527 419.752 597.317 428.709C599.156 437.497 597.848 447.018 593.392 457.272C590.013 465.089 585.602 471.414 580.16 476.245C574.717 481.077 568.471 484.574 561.423 486.737C554.543 488.95 546.92 489.937 538.554 489.699C530.238 489.292 521.467 487.927 512.241 485.604L471.488 475.375C469.29 474.735 467.216 473.672 465.265 472.186C463.434 470.919 461.895 469.278 460.649 467.264C459.571 465.3 458.821 463.156 458.398 460.832C458.193 458.388 458.545 455.924 459.453 453.438L509.942 304.766C511.61 300.301 514.335 297.245 518.116 295.596C521.947 293.779 526.084 293.426 530.527 294.538L585.447 308.071ZM671.852 470.241C670.67 474.297 670.156 477.632 670.311 480.244C670.636 482.906 672.136 484.994 674.812 486.507C677.777 488.288 680.129 489.341 681.869 489.665C683.777 490.037 685.457 490.252 686.908 490.308C689.203 490.611 691.361 489.498 693.382 486.969C695.572 484.49 697.353 481.525 698.726 478.074L739.524 371.139C741.045 367.181 743.527 364.329 746.97 362.582C750.462 360.666 754.624 360.228 759.455 361.27L781.015 365.629C786.184 366.769 789.857 369.582 792.033 374.067C794.428 378.433 794.658 382.992 792.722 387.746L750.085 492.495C742.342 511.51 733.552 524.993 723.716 532.945C714.048 540.946 701.609 542.73 686.397 538.296L652.679 528.467C643.383 525.757 636.073 522.526 630.749 518.774C625.424 515.021 621.663 510.624 619.465 505.582C617.317 500.371 616.418 494.333 616.769 487.467C617.289 480.65 618.77 472.738 621.212 463.731L651.394 347.925C652.506 343.481 654.832 340.217 658.374 338.132C661.916 336.047 665.789 335.342 669.993 336.017L691.521 339.542C696.958 340.393 700.873 343.001 703.268 347.367C705.713 351.564 706.27 355.944 704.939 360.507L671.852 470.241ZM823.535 527.384L829.799 529.485C834.482 531.033 838.267 530.945 841.154 529.219C844.26 527.374 846.851 524.461 848.927 520.482C849.343 519.686 850.223 517.926 851.567 515.2C852.961 512.306 854.503 508.904 856.192 504.996C858.051 501.137 859.899 496.999 861.736 492.583C863.791 488.048 865.689 483.742 867.427 479.664C869.215 475.417 870.771 471.653 872.094 468.371C873.418 465.09 874.301 462.688 874.745 461.167C876.173 456.266 875.409 452.283 872.45 449.221C869.661 446.207 866.189 444.278 862.034 443.434L855.115 441.692L823.535 527.384ZM882.139 394.281C890.399 396.139 898.1 398.659 905.241 401.841C912.551 405.072 918.612 409.13 923.422 414.017C928.401 418.952 931.719 424.871 933.375 431.772C935.2 438.722 934.758 446.845 932.048 456.141C930.077 462.901 927.23 470.782 923.506 479.782C920.001 488.662 916.217 497.554 912.155 506.455C908.143 515.188 904.193 523.389 900.307 531.058C896.64 538.608 893.574 544.408 891.11 548.457C888.596 552.676 885.358 556.866 881.394 561.029C877.43 565.191 872.659 568.66 867.082 571.435C861.506 574.211 854.918 576.05 847.32 576.952C839.771 577.686 831.046 576.793 821.145 574.273L778.109 563.379C775.743 562.689 773.669 561.626 771.887 560.19C770.274 558.803 768.929 557.127 767.851 555.163C766.774 553.198 766.108 551.079 765.854 548.804C765.6 546.53 765.793 544.294 766.434 542.097L816.447 394.112C818.165 389.478 820.83 386.312 824.442 384.614C828.223 382.966 832.445 382.638 837.107 383.63L882.139 394.281ZM972.827 570.902L979.091 573.003C983.774 574.551 987.559 574.463 990.446 572.737C993.551 570.892 996.142 567.979 998.219 564C998.634 563.205 999.514 561.444 1000.86 558.718C1002.25 555.824 1003.79 552.422 1005.48 548.514C1007.34 544.655 1009.19 540.517 1011.03 536.101C1013.08 531.566 1014.98 527.26 1016.72 523.182C1018.51 518.935 1020.06 515.171 1021.39 511.889C1022.71 508.608 1023.59 506.206 1024.04 504.685C1025.46 499.784 1024.7 495.802 1021.74 492.739C1018.95 489.725 1015.48 487.796 1011.33 486.952L1004.41 485.21L972.827 570.902ZM1031.43 437.799C1039.69 439.657 1047.39 442.177 1054.53 445.359C1061.84 448.59 1067.9 452.648 1072.71 457.535C1077.69 462.471 1081.01 468.389 1082.67 475.29C1084.49 482.24 1084.05 490.363 1081.34 499.659C1079.37 506.419 1076.52 514.3 1072.8 523.3C1069.29 532.181 1065.51 541.072 1061.45 549.973C1057.43 558.706 1053.48 566.907 1049.6 574.576C1045.93 582.126 1042.87 587.926 1040.4 591.975C1037.89 596.194 1034.65 600.384 1030.69 604.547C1026.72 608.709 1021.95 612.178 1016.37 614.953C1010.8 617.729 1004.21 619.568 996.612 620.47C989.063 621.204 980.337 620.311 970.436 617.791L927.401 606.897C925.035 606.207 922.96 605.144 921.179 603.708C919.566 602.321 918.221 600.645 917.143 598.681C916.065 596.716 915.399 594.597 915.145 592.322C914.892 590.048 915.085 587.812 915.725 585.615L965.739 437.63C967.457 432.996 970.121 429.83 973.734 428.132C977.515 426.484 981.737 426.156 986.399 427.148L1031.43 437.799ZM1147.49 468.879C1152.08 469.484 1155.7 471.547 1158.34 475.067C1161.03 478.419 1162.13 482.5 1161.65 487.309L1152.89 564.526L1191.26 498.966C1193.72 494.917 1196.83 492.43 1200.58 491.507C1204.55 490.464 1208.49 490.788 1212.4 492.477L1231.77 500.597C1234.37 501.723 1236.49 503.258 1238.12 505.202C1239.93 507.194 1241.13 509.377 1241.72 511.75C1242.36 513.954 1242.39 516.348 1241.82 518.933C1241.3 521.348 1240.17 523.676 1238.41 525.916L1160.87 618.29L1148.65 652.685C1147.03 656.981 1144.48 660.365 1141.01 662.838C1137.59 665.141 1133.4 665.663 1128.45 664.403L1111.39 659.705C1106.61 658.495 1103.06 655.9 1100.73 651.922C1098.41 647.944 1098.02 643.613 1099.57 638.93L1111.48 602.792L1104.87 482.037C1104.75 477.417 1106.4 473.315 1109.83 469.73C1113.43 466.194 1118.06 464.792 1123.71 465.524L1147.49 468.879Z" fill="#A35D20"/>
<path fill-rule="evenodd" clip-rule="evenodd" d="M18.4078 427.718C1.74744 419.142 -4.80579 398.683 3.77087 382.023C12.3475 365.362 32.806 358.809 49.4664 367.386C221.636 456.017 308.228 514.09 383.889 623.247L391.441 624.715L1089.55 804.93C1107.99 809.69 1115.92 831.464 1104.86 846.969L1071.81 893.332C1023.07 955.335 923.997 1021.16 816.103 1034.05C714.996 1040.16 621.354 1041.4 513.459 960.763C390.875 879.531 337.355 740.94 323.053 654.69C258.297 563.998 183.068 512.484 18.4078 427.718Z" fill="#A35D20"/>
</svg>
