<svg width="1223" height="822" viewBox="0 0 1223 822" fill="none" xmlns="http://www.w3.org/2000/svg">
<path d="M267.662 318.997C263.835 341.955 256.879 359.521 246.791 371.695C237.052 383.869 223.486 391 206.094 393.087C188.702 395.174 170.267 396.565 150.788 397.261C131.657 398.305 114.787 397.783 100.177 395.696C92.8728 394.652 85.3943 392.739 77.7419 389.956C70.0894 386.826 62.9587 382.652 56.3498 377.434C49.7409 371.869 44.1755 364.912 39.6536 356.564C35.1317 348.216 32.349 338.129 31.3054 326.302C29.9141 309.954 28.8706 291.344 28.1749 270.474C27.8271 249.256 27.6531 228.038 27.6531 206.82C27.6531 185.254 28.001 164.905 28.6967 145.774C29.3923 126.295 30.4359 110.121 31.8272 97.2505C34.6099 71.1627 43.132 51.6837 57.3933 38.8137C71.6547 25.9437 92.6989 18.1173 120.526 15.3346C134.44 13.9433 150.962 13.4215 170.093 13.7693C189.224 13.7693 211.312 15.1607 236.356 17.9434C258.27 20.7261 274.097 28.7264 283.836 41.9443C293.923 54.8143 296.706 73.2497 292.184 97.2505L284.358 140.035C282.619 149.078 278.966 156.209 273.401 161.427C268.183 166.644 261.574 169.601 253.574 170.297L214.442 172.384C209.573 172.731 205.051 172.036 200.877 170.297C197.05 168.21 193.746 165.601 190.963 162.47C188.181 159.34 185.92 155.687 184.18 151.513C182.789 147.339 182.093 143.165 182.093 138.991V134.817C182.093 129.6 180.528 125.773 177.398 123.338C174.615 120.904 171.658 119.86 168.528 120.208L150.788 121.773C145.918 122.469 142.092 124.034 139.309 126.469C136.527 128.556 134.961 133.078 134.613 140.035C134.266 147.339 133.918 157.774 133.57 171.34C133.222 184.558 132.874 198.819 132.526 214.124C132.179 229.081 132.005 244.038 132.005 258.995C132.005 273.952 132.352 286.475 133.048 296.562C133.396 302.127 134.787 305.954 137.222 308.041C139.657 309.78 143.309 310.475 148.179 310.128L157.049 309.606C161.223 309.258 164.18 308.388 165.919 306.997C167.658 305.606 168.876 302.127 169.571 296.562L171.136 285.605C172.528 276.213 176.006 268.735 181.572 263.169C187.485 257.604 194.963 254.473 204.007 253.778L240.008 251.169C244.53 250.821 248.878 251.691 253.052 253.778C257.574 255.517 261.4 258.126 264.531 261.604C267.662 264.735 269.923 268.735 271.314 273.605C273.053 278.126 273.575 282.822 272.879 287.692L267.662 318.997ZM443.885 113.425C435.537 114.469 431.363 120.034 431.363 130.121L430.319 301.258C430.319 305.432 430.667 308.91 431.363 311.693C432.406 314.128 435.885 315.171 441.798 314.823L465.277 313.78C471.886 313.432 475.538 311.519 476.234 308.041C477.278 304.562 477.973 301.084 478.321 297.605L494.496 120.73C495.191 115.512 494.496 112.034 492.409 110.294C490.322 108.207 486.321 107.512 480.408 108.207L443.885 113.425ZM490.843 13.7693C513.105 12.0302 531.714 13.4215 546.671 17.9434C561.976 22.1175 573.977 28.9003 582.673 38.2919C591.369 47.6836 597.108 59.3362 599.891 73.2497C602.673 87.1632 602.847 102.816 600.412 120.208L575.89 302.301C574.151 313.78 571.89 325.085 569.107 336.215C566.672 347.346 562.324 357.434 556.063 366.477C549.802 375.173 541.28 382.304 530.497 387.869C519.714 393.087 505.453 395.696 487.713 395.696L426.667 396.218C411.014 396.218 397.449 394.826 385.97 392.044C374.491 389.261 364.752 384.217 356.752 376.913C349.099 369.26 343.186 358.825 339.012 345.607C335.186 332.389 333.273 315.519 333.273 294.997L331.707 112.903C331.707 98.294 332.403 85.598 333.794 74.815C335.186 63.6842 337.794 54.2925 341.621 46.6401C345.795 38.9876 351.36 33.0744 358.317 28.9003C365.274 24.7263 374.144 22.2914 384.927 21.5957L490.843 13.7693ZM748.583 113.425C740.235 114.469 736.061 120.034 736.061 130.121L735.018 301.258C735.018 305.432 735.366 308.91 736.061 311.693C737.105 314.128 740.583 315.171 746.496 314.823L769.975 313.78C776.584 313.432 780.237 311.519 780.932 308.041C781.976 304.562 782.672 301.084 783.019 297.605L799.194 120.73C799.89 115.512 799.194 112.034 797.107 110.294C795.02 108.207 791.02 107.512 785.106 108.207L748.583 113.425ZM795.542 13.7693C817.803 12.0302 836.413 13.4215 851.37 17.9434C866.674 22.1175 878.675 28.9003 887.371 38.2919C896.067 47.6836 901.806 59.3362 904.589 73.2497C907.372 87.1632 907.545 102.816 905.111 120.208L880.588 302.301C878.849 313.78 876.588 325.085 873.805 336.215C871.37 347.346 867.022 357.434 860.761 366.477C854.5 375.173 845.978 382.304 835.195 387.869C824.412 393.087 810.151 395.696 792.411 395.696L731.365 396.218C715.713 396.218 702.147 394.826 690.668 392.044C679.19 389.261 669.45 384.217 661.45 376.913C653.797 369.26 647.884 358.825 643.71 345.607C639.884 332.389 637.971 315.519 637.971 294.997L636.406 112.903C636.406 98.294 637.101 85.598 638.493 74.815C639.884 63.6842 642.493 54.2925 646.319 46.6401C650.493 38.9876 656.058 33.0744 663.015 28.9003C669.972 24.7263 678.842 22.2914 689.625 21.5957L795.542 13.7693ZM1015.71 18.9869C1020.93 18.6391 1025.63 19.3348 1029.8 21.0739C1034.32 22.8131 1038.15 25.4219 1041.28 28.9003C1044.76 32.0309 1047.37 35.8571 1049.11 40.379C1050.85 44.553 1051.54 48.7271 1051.19 52.9012L1038.67 222.472L1117.46 38.2919C1121.28 30.2917 1126.68 23.8566 1133.63 18.9869C1140.94 14.1172 1150.15 13.5954 1161.29 17.4217L1194.16 28.3785C1205.29 32.2048 1212.42 38.4659 1215.55 47.1618C1219.03 55.5099 1217.81 65.7712 1211.9 77.9455L1135.72 239.169L1183.2 333.607C1188.07 342.998 1189.11 352.042 1186.33 360.738C1183.89 369.434 1177.98 376.043 1168.59 380.565L1138.33 395.174C1128.59 399.696 1119.54 400.739 1111.2 398.305C1103.2 396.218 1096.41 390.13 1090.85 380.043L1034.5 273.605L1028.76 358.651C1027.37 379.521 1017.63 390.826 999.54 392.565L968.235 395.696C964.061 396.044 959.713 395.522 955.191 394.131C951.017 393.087 947.191 391.174 943.712 388.391C940.234 385.609 937.451 381.956 935.364 377.434C933.277 372.912 932.408 367.695 932.756 361.782L945.278 57.0752C945.973 46.9879 948.756 39.1615 953.626 33.5961C958.496 28.0307 966.496 24.5523 977.627 23.161L1015.71 18.9869Z" fill="#A35D20"/>
<path d="M100.181 596.915L121.942 577.618C127.963 572.144 132.617 566.669 135.901 561.195C139.186 555.447 140.828 550.657 140.828 546.825C140.828 540.256 138.638 536.013 134.259 534.097C130.153 531.907 125.774 530.949 121.12 531.223L105.108 531.634L100.181 596.915ZM93.2011 697.917C109.077 698.191 119.889 695.728 125.637 690.527C131.659 685.326 134.669 677.799 134.669 667.945C134.669 659.186 131.111 651.522 123.994 644.953C116.878 638.11 108.256 632.772 98.128 628.94L93.2011 697.917ZM140.418 458.14C153.83 457.593 165.6 458.688 175.727 461.425C185.855 463.888 194.34 467.583 201.183 472.51C208.026 477.164 213.09 482.775 216.374 489.344C219.933 495.64 221.712 502.483 221.712 509.873C221.712 518.084 220.343 526.296 217.606 534.508C215.143 542.445 211.858 550.11 207.752 557.5C203.646 564.89 199.13 572.007 194.203 578.85C189.276 585.419 184.486 591.715 179.833 597.737C193.793 608.685 204.057 620.455 210.626 633.046C217.196 645.364 219.385 660.144 217.196 677.389C215.553 690.527 211.721 701.886 205.699 711.467C199.678 721.047 191.877 728.984 182.296 735.28C172.99 741.576 162.041 746.366 149.45 749.65C136.859 752.661 123.173 754.44 108.392 754.988L43.1106 757.451C39.5523 757.451 35.994 756.767 32.4356 755.398C29.151 754.303 26.1401 752.524 23.4029 750.061C20.9395 747.597 18.8866 744.723 17.2443 741.439C15.8757 737.88 15.3282 734.048 15.6019 729.943L26.277 486.059C26.8244 478.669 29.5616 472.921 34.4885 468.815C39.4154 464.436 45.4373 462.109 52.5539 461.835L140.418 458.14ZM339.952 662.608C339.952 669.177 340.636 674.378 342.005 678.21C343.647 682.042 346.795 684.505 351.448 685.6C356.649 686.969 360.618 687.516 363.355 687.242C366.366 686.969 368.966 686.558 371.156 686.011C374.714 685.463 377.451 682.863 379.367 678.21C381.557 673.557 382.926 668.356 383.473 662.608L397.843 485.238C398.391 478.669 400.854 473.332 405.234 469.226C409.613 464.846 415.635 462.383 423.299 461.835L457.377 458.961C465.589 458.414 472.295 461.014 477.495 466.762C482.97 472.237 485.296 478.943 484.475 486.881L466.41 661.787C463.125 693.538 455.872 717.488 444.649 733.638C433.7 749.787 415.909 757.862 391.274 757.862H336.667C321.613 757.862 309.295 756.219 299.715 752.935C290.135 749.65 282.608 744.723 277.133 738.154C271.659 731.311 267.69 722.689 265.227 712.288C263.037 701.886 261.805 689.432 261.532 674.925L256.194 488.933C255.92 481.817 257.973 475.932 262.353 471.279C266.732 466.625 272.207 463.888 278.776 463.067L312.443 458.961C320.928 457.866 327.908 460.056 333.383 465.531C338.857 470.731 341.594 477.027 341.594 484.417L339.952 662.608ZM591.225 681.905L601.49 682.316C609.154 682.589 614.765 680.81 618.323 676.978C622.156 672.872 624.756 667.398 626.124 660.555C626.398 659.186 626.946 656.175 627.767 651.522C628.588 646.595 629.409 640.847 630.23 634.278C631.325 627.709 632.283 620.729 633.104 613.338C634.199 605.674 635.157 598.421 635.978 591.578C636.799 584.461 637.484 578.166 638.031 572.691C638.579 567.217 638.852 563.248 638.852 560.785C638.852 552.847 635.978 547.235 630.23 543.951C624.756 540.666 618.734 539.298 612.165 539.845L601.079 540.256L591.225 681.905ZM620.787 457.73C633.925 456.908 646.516 457.319 658.56 458.961C670.877 460.604 681.689 464.025 690.996 469.226C700.576 474.426 708.103 481.817 713.577 491.397C719.326 500.977 722.2 513.294 722.2 528.349C722.2 539.298 721.378 552.299 719.736 567.354C718.368 582.135 716.588 597.052 714.399 612.107C712.209 626.888 709.882 640.847 707.419 653.986C705.229 666.85 703.176 676.841 701.26 683.958C699.344 691.348 696.333 699.012 692.227 706.95C688.122 714.888 682.51 722.142 675.394 728.711C668.277 735.28 659.244 740.891 648.296 745.544C637.347 749.924 623.935 752.387 608.059 752.935L539.082 755.398C535.25 755.398 531.692 754.714 528.407 753.345C525.396 751.977 522.659 750.061 520.195 747.597C517.732 745.134 515.816 742.26 514.447 738.975C513.079 735.691 512.394 732.269 512.394 728.711L522.659 486.059C523.206 478.395 525.807 472.51 530.46 468.405C535.387 464.299 541.545 461.972 548.936 461.425L620.787 457.73ZM833.001 681.905L843.265 682.316C850.93 682.589 856.541 680.81 860.099 676.978C863.931 672.872 866.531 667.398 867.9 660.555C868.174 659.186 868.721 656.175 869.542 651.522C870.364 646.595 871.185 640.847 872.006 634.278C873.101 627.709 874.059 620.729 874.88 613.338C875.975 605.674 876.933 598.421 877.754 591.578C878.575 584.461 879.259 578.166 879.807 572.691C880.354 567.217 880.628 563.248 880.628 560.785C880.628 552.847 877.754 547.235 872.006 543.951C866.531 540.666 860.51 539.298 853.94 539.845L842.855 540.256L833.001 681.905ZM862.563 457.73C875.701 456.908 888.292 457.319 900.336 458.961C912.653 460.604 923.465 464.025 932.771 469.226C942.351 474.426 949.879 481.817 955.353 491.397C961.101 500.977 963.975 513.294 963.975 528.349C963.975 539.298 963.154 552.299 961.512 567.354C960.143 582.135 958.364 597.052 956.174 612.107C953.984 626.888 951.658 640.847 949.194 653.986C947.005 666.85 944.952 676.841 943.036 683.958C941.12 691.348 938.109 699.012 934.003 706.95C929.897 714.888 924.286 722.142 917.169 728.711C910.053 735.28 901.02 740.891 890.071 745.544C879.123 749.924 865.71 752.387 849.835 752.935L780.858 755.398C777.026 755.398 773.467 754.714 770.183 753.345C767.172 751.977 764.434 750.061 761.971 747.597C759.508 745.134 757.592 742.26 756.223 738.975C754.854 735.691 754.17 732.269 754.17 728.711L764.434 486.059C764.982 478.395 767.582 472.51 772.235 468.405C777.162 464.299 783.321 461.972 790.711 461.425L862.563 457.73ZM1049.32 453.624C1056.44 452.529 1062.73 454.034 1068.21 458.14C1073.68 461.972 1077.1 467.583 1078.47 474.974L1099 594.041L1127.74 479.49C1129.66 472.374 1133.22 467.31 1138.42 464.299C1143.89 461.014 1149.91 459.782 1156.48 460.604L1188.92 464.299C1193.3 464.846 1197.13 466.215 1200.41 468.405C1203.97 470.594 1206.71 473.332 1208.62 476.616C1210.54 479.627 1211.64 483.185 1211.91 487.291C1212.18 491.123 1211.5 495.092 1209.86 499.198L1134.31 670.819L1131.03 727.479C1130.48 734.596 1128.15 740.754 1124.05 745.955C1119.94 750.882 1113.92 753.482 1105.98 753.756L1078.47 754.167C1070.81 754.44 1064.38 752.114 1059.17 747.187C1053.97 742.26 1051.51 735.964 1051.78 728.3L1053.84 669.177L991.429 491.808C989.24 484.965 989.924 478.122 993.482 471.279C997.314 464.436 1003.61 460.33 1012.37 458.961L1049.32 453.624Z" fill="#A35D20"/>
</svg>
