<svg width="788" height="800" viewBox="0 0 788 800" fill="none" xmlns="http://www.w3.org/2000/svg">
<path d="M620.399 130.931C580.739 105.513 506.248 70.0942 434.684 102.819C427.795 105.977 419.946 101.008 419.946 93.4229V27.6476C419.962 12.4461 409.637 0 397.02 0H362.608C349.991 0 339.666 12.4461 339.666 27.6476V97.3239C339.666 103.903 333.706 108.888 327.251 107.556C298.195 101.565 222.744 92.2464 150.591 135.343C140.715 141.241 146.443 156.721 157.774 154.647C191.366 148.501 235.578 144.275 265.454 156.071C273.287 159.152 274.417 169.864 267.374 174.477C246.15 188.332 207.001 220.19 181.35 278.767C176.985 288.736 189.245 297.668 197.651 290.749C230.423 263.751 284.34 227.172 330.068 233.07C335.456 233.766 339.542 238.163 339.465 243.596C339.001 274.278 339.388 378.521 364.729 417.98C368.722 424.203 377.67 424.513 382.02 418.522C398.166 396.339 433.166 337.514 431.727 245.655C431.634 239.618 436.479 234.71 442.517 234.912C465.582 235.655 520.041 242.172 563.231 284.355C570.305 291.275 582.024 285.3 580.785 275.485C577.395 248.627 562.612 208.007 509.097 176.505C500.97 171.722 502.347 159.554 511.496 157.31C529.98 152.774 561.838 148.455 614.346 150.189C625.012 150.514 629.362 136.674 620.399 130.931Z" fill="#88C057"/>
<path d="M632.443 154.647C631.003 153.641 629.331 153.006 627.582 152.789C621.39 152.031 615.182 151.319 608.99 150.483C606.776 150.266 604.547 150.096 602.349 149.879C557.24 149.136 528.927 153.068 511.852 157.217C502.579 159.477 500.908 171.629 509.143 176.474C562.658 207.976 577.426 248.596 580.816 275.439C582.055 285.253 570.336 291.229 563.262 284.309C520.072 242.141 465.613 235.624 442.547 234.865C436.51 234.664 431.649 239.571 431.758 245.608C433.182 337.468 398.197 396.292 382.051 418.476C377.685 424.466 368.753 424.157 364.759 417.934C339.418 378.475 339.031 274.231 339.496 243.55C339.573 238.132 335.486 233.72 330.099 233.023C284.371 227.11 230.453 263.705 197.682 290.702C189.276 297.622 177.016 288.69 181.381 278.721C207.001 220.221 246.088 188.378 267.327 174.493C274.402 169.864 273.225 159.105 265.346 156.071C259.603 153.857 253.333 152.217 246.723 151.056C245.547 150.839 244.293 150.823 243.101 150.994C205.561 156.102 168.687 163.238 132.897 172.836C131.318 173.254 129.848 174.013 128.594 175.065C49.5985 240.794 0 335.424 0 440.643C0 639.115 176.366 800 393.909 800C611.451 800 787.817 639.115 787.817 440.643C787.833 323.969 726.872 220.283 632.443 154.647Z" fill="#D13834"/>
<path d="M83.5621 536.171C78.2679 536.171 73.113 533.462 70.2336 528.586C58.6545 509.035 51.0692 487.44 47.679 464.405C46.4406 455.938 52.2921 448.074 60.7443 446.835C69.3513 445.504 77.0759 451.448 78.3143 459.901C81.0698 478.678 87.494 496.976 96.875 512.812C101.225 520.165 98.8101 529.67 91.4415 534.02C88.9647 535.475 86.2401 536.171 83.5621 536.171Z" fill="#ED7161"/>
<path d="M64.9396 412.98C64.5835 412.98 64.212 412.965 63.856 412.934C55.3109 412.345 48.8866 404.946 49.4749 396.432C50.93 375.89 55.1406 355.936 62.0293 337.081C64.9551 329.047 73.8097 324.96 81.8904 327.855C89.9246 330.78 94.0423 339.682 91.1165 347.716C85.2186 363.831 81.6117 380.936 80.3733 398.568C79.8005 406.742 73.0047 412.98 64.9396 412.98Z" fill="#ED7161"/>
<ellipse cx="204.899" cy="476.381" rx="48.6303" ry="37.8236" transform="rotate(0.408241 204.899 476.381)" fill="#FA9496"/>
<ellipse cx="583.101" cy="479.079" rx="48.6303" ry="37.8236" transform="rotate(0.408241 583.101 479.079)" fill="#FA9496"/>
<circle cx="239.508" cy="420.789" r="50.4314" transform="rotate(0.408241 239.508 420.789)" fill="#FEFDF7"/>
<circle cx="239.508" cy="420.796" r="36.0225" transform="rotate(0.408241 239.508 420.796)" fill="#000100"/>
<path d="M265.977 387.185C273.687 394.585 275.642 405.059 270.343 410.58C265.044 416.101 254.498 414.577 246.788 407.177C239.078 399.776 237.124 389.302 242.422 383.781C247.721 378.261 258.267 379.784 265.977 387.185Z" fill="#FEFDF7"/>
<circle cx="545.67" cy="422.982" r="50.4314" transform="rotate(0.408241 545.67 422.982)" fill="#FEFDF7"/>
<circle cx="545.678" cy="422.98" r="36.0225" transform="rotate(0.408241 545.678 422.98)" fill="#000100"/>
<path d="M448.864 519.545L343.271 518.793C346.557 582.679 354.846 610.815 389.432 628.141C392.675 629.765 396.487 629.94 399.843 628.564C431.45 615.607 441.973 589.024 448.864 519.545Z" fill="black" stroke="black" stroke-width="2.89294"/>
<path d="M371.946 592.21C373.423 591.572 375.097 591.544 376.675 591.857C383.306 593.173 402.367 596.238 417.664 591.651C432.194 587.293 424.248 599.093 419.816 609.385C417.92 613.787 413.592 617.66 408.799 617.625C399.493 617.559 392.07 617.506 382.764 617.44C377.971 617.406 373.713 613.417 371.376 609.233C367.625 602.521 362.334 596.363 371.946 592.21Z" fill="#FA9496"/>
<path d="M573.89 389.862C581.6 397.262 583.554 407.737 578.256 413.257C572.957 418.778 562.411 417.254 554.701 409.854C546.991 402.454 545.036 391.98 550.335 386.459C555.634 380.938 566.18 382.462 573.89 389.862Z" fill="#FEFDF7"/>
</svg>
