<svg width="436" height="590" viewBox="0 0 436 590" fill="none" xmlns="http://www.w3.org/2000/svg">
<path d="M213.968 112.846L26.2773 102.983L61.9384 549.257C61.9384 549.257 84.0474 588.331 212.091 589.085V589.103C212.725 589.103 213.339 589.096 213.968 589.094C214.597 589.096 215.211 589.103 215.845 589.103V589.085C343.889 588.331 365.998 549.257 365.998 549.257L401.659 102.983L213.968 112.846Z" fill="#999999"/>
<path d="M213.968 112.846L26.2773 102.983L27.9333 123.71L142.645 129.738L330.336 119.875L297.868 581.648C354.182 570.117 365.998 549.257 365.998 549.257L401.659 102.983L213.968 112.846Z" fill="#898787"/>
<path d="M26.2773 102.983L28.2064 127.122C65.6144 136.642 136.464 142.826 217.722 142.826C293.774 142.826 360.705 137.034 399.64 128.259L401.66 102.984L213.969 112.847L26.2773 102.983Z" fill="#696969"/>
<path d="M219.599 564.703C213.38 564.703 208.338 559.661 208.338 553.442V168.675C208.338 162.456 213.38 157.414 219.599 157.414C225.818 157.414 230.861 162.456 230.861 168.675V553.442C230.861 559.661 225.818 564.703 219.599 564.703Z" fill="#7C7C7C"/>
<path d="M153.355 562.627C147.305 562.627 142.305 557.825 142.106 551.734L129.514 167.167C129.311 160.951 134.184 155.747 140.401 155.544C146.683 155.342 151.822 160.215 152.025 166.431L164.617 550.998C164.82 557.214 159.947 562.418 153.73 562.622C153.604 562.625 153.478 562.627 153.355 562.627Z" fill="#7C7C7C"/>
<path d="M91.9577 547.595C86.1747 547.595 81.3137 543.095 80.9457 537.243L57.4597 164.013C57.0767 157.925 61.7007 152.679 67.7887 152.296C73.8657 151.91 79.1227 156.537 79.5057 162.625L102.992 535.856C103.375 541.944 98.7507 547.19 92.6627 547.573C92.4257 547.588 92.1917 547.595 91.9577 547.595Z" fill="#7C7C7C"/>
<path d="M278.703 562.627C278.578 562.627 278.454 562.625 278.328 562.621C272.112 562.417 267.238 557.214 267.441 550.997L280.033 166.43C280.236 160.214 285.442 155.3 291.657 155.543C297.873 155.746 302.747 160.95 302.544 167.166L289.952 551.733C289.753 557.824 284.753 562.627 278.703 562.627Z" fill="#7C7C7C"/>
<path d="M340.1 547.595C339.866 547.595 339.632 547.588 339.395 547.573C333.307 547.19 328.683 541.944 329.066 535.856L352.552 162.625C352.936 156.537 358.184 151.916 364.269 152.296C370.357 152.679 374.982 157.925 374.598 164.013L351.112 537.243C350.744 543.095 345.883 547.595 340.1 547.595Z" fill="#7C7C7C"/>
<path d="M0 96.4141C0 114.272 97.477 127.811 217.722 127.811C337.967 127.811 435.444 113.334 435.444 95.4761V54.1841H0V96.4141Z" fill="#999999"/>
<path d="M217.722 86.518C337.967 86.518 435.444 72.0411 435.444 54.183C435.444 36.3249 337.967 21.848 217.722 21.848C97.4774 21.848 0 36.3249 0 54.183C0 72.0411 97.4774 86.518 217.722 86.518Z" fill="#B3B3B3"/>
<path d="M0 54.183C0 57.113 2.639 59.95 7.556 62.649C44.677 67.017 91.608 69.626 142.645 69.626C262.89 69.626 360.367 55.149 360.367 37.291C360.367 34.361 357.728 31.524 352.811 28.825C315.69 24.457 268.759 21.848 217.721 21.848C97.478 21.848 0 36.325 0 54.183Z" fill="#C9C9C9"/>
<g opacity="0.61">
<path d="M0 54.73C0.678 58.625 14.096 83.227 221.375 83.564C363.892 83.796 427.711 70.803 435.412 54.73C435.983 59.939 414.558 90.518 222.178 90.985C59.713 91.38 2.077 70.044 0 54.73Z" fill="white"/>
</g>
<path d="M178.06 59.566H257.385V53.244H178.276L178.06 59.566Z" fill="#999999"/>
<path d="M283.414 59.566H257.385V14.521H178.06V59.566H152.03V52.554H165.416V0H270.028V52.554H283.414V59.566Z" fill="#696969"/>
<path d="M165.416 0H270.028V7.26001H165.169L165.416 0Z" fill="#898787"/>
</svg>
